/* XPM */
static char * arrow_xpm[] = {
"24 24 37 1",
" 	c None",
".	c #000000",
"+	c #DADADA",
"@	c #FBFBFB",
"#	c #D7D7D7",
"$	c #F9F9F9",
"%	c #D4D4D4",
"&	c #F6F6F6",
"*	c #D1D1D1",
"=	c #FCFCFC",
"-	c #FAFAFA",
";	c #F7F7F7",
">	c #F3F3F3",
",	c #CFCFCF",
"'	c #FDFDFD",
")	c #F8F8F8",
"!	c #F4F4F4",
"~	c #F0F0F0",
"{	c #CCCCCC",
"]	c #F5F5F5",
"^	c #F2F2F2",
"/	c #EEEEEE",
"(	c #CACACA",
"_	c #EFEFEF",
":	c #EBEBEB",
"<	c #C9C9C9",
"[	c #FEFEFE",
"}	c #EDEDED",
"|	c #969696",
"1	c #B2B2B2",
"2	c #FFFFFF",
"3	c #888888",
"4	c #DCDCDC",
"5	c #A3A3A3",
"6	c #BFBFBF",
"7	c #D2D2D2",
"8	c #D6D6D6",
"                        ",
"                        ",
"       .                ",
"       ..               ",
"       .+.              ",
"       .@#.             ",
"       .@$%.            ",
"       .@$&*.           ",
"       .=-;>,.          ",
"       .'@)!~{.         ",
"       .'@$]^/(.        ",
"       .'=-;>_:<.       ",
"       .['@)!~}(|.      ",
"       .['=$&*1..       ",
"       .2['@)3.         ",
"       .245.#&..        ",
"       .6....;7.        ",
"       ...  .8].        ",
"             .;7.       ",
"             .8].       ",
"              ...       ",
"                        ",
"                        ",
"                        "};
