/* XPM */
static char * clamp_xpm[] = {
"24 24 3 1",
" 	c None",
".	c #000000",
"+	c #BE5959",
"                        ",
"                        ",
"                        ",
"                        ",
"                        ",
"                        ",
"                .       ",
"               ...      ",
"              ...       ",
"             ...        ",
"            ...         ",
"           ...          ",
"          ...           ",
"     .   ...            ",
"     .. ...             ",
"    .++...              ",
"    .+++.               ",
"    .++++.              ",
"   .+++++..             ",
"   .+++..               ",
"  .+...                 ",
"  ..                    ",
"                        ",
"                        "};
