/* XPM */
static char * plot_xpm[] = {
"32 32 174 2",
"  	c None",
". 	c #141414",
"+ 	c #3B3B3B",
"@ 	c #404040",
"# 	c #545454",
"$ 	c #555555",
"% 	c #F6F6F6",
"& 	c #FFFFFF",
"* 	c #FAFAFA",
"= 	c #D6D6D6",
"- 	c #878787",
"; 	c #242424",
"> 	c #FEFEFE",
", 	c #E6E6E6",
"' 	c #F0F0F0",
") 	c #A0A0A0",
"! 	c #000000",
"~ 	c #F8F8F8",
"{ 	c #D8D8D8",
"] 	c #F5F5F5",
"^ 	c #979797",
"/ 	c #252525",
"( 	c #FDFDFD",
"_ 	c #F7F7F7",
": 	c #C9C9C9",
"< 	c #E0E0E0",
"[ 	c #888888",
"} 	c #212121",
"| 	c #FDFDFC",
"1 	c #FCFCFC",
"2 	c #BFBFBF",
"3 	c #E1E1E1",
"4 	c #C8C8C8",
"5 	c #C2C2C2",
"6 	c #8E8E8E",
"7 	c #FBFBFB",
"8 	c #F1F1F1",
"9 	c #FCFCFB",
"0 	c #F6F6F5",
"a 	c #A9A9A9",
"b 	c #666666",
"c 	c #5D5D5D",
"d 	c #565656",
"e 	c #5A5A5A",
"f 	c #848484",
"g 	c #535353",
"h 	c #D5D5D5",
"i 	c #EAEAEA",
"j 	c #C7C7C6",
"k 	c #A6A6A6",
"l 	c #9A9A9A",
"m 	c #6C6C6C",
"n 	c #F9F9F9",
"o 	c #EEEEEE",
"p 	c #DFDFDF",
"q 	c #AEAEAE",
"r 	c #C4C4C4",
"s 	c #DEDEDE",
"t 	c #505050",
"u 	c #C3C3C3",
"v 	c #DDDDDD",
"w 	c #F8F8F7",
"x 	c #F7F7F6",
"y 	c #ECECEB",
"z 	c #BEBEBD",
"A 	c #DCDCDB",
"B 	c #F4F4F3",
"C 	c #FEFEFD",
"D 	c #EDEDED",
"E 	c #C0C0C0",
"F 	c #DADADA",
"G 	c #F2F2F2",
"H 	c #F5F5F4",
"I 	c #4E4E4E",
"J 	c #C0C0BF",
"K 	c #DADAD9",
"L 	c #F0F0EF",
"M 	c #F3F3F2",
"N 	c #E8E8E7",
"O 	c #BBBBBA",
"P 	c #D7D7D6",
"Q 	c #4B6983",
"R 	c #E4E4E3",
"S 	c #EBEBEA",
"T 	c #F2F2F1",
"U 	c #3A5165",
"V 	c #E7E7E6",
"W 	c #BABABA",
"X 	c #7590AE",
"Y 	c #CFCFCE",
"Z 	c #E6E6E5",
"` 	c #455668",
" .	c #263440",
"..	c #EEEEED",
"+.	c #C3C3C2",
"@.	c #F1F1F0",
"#.	c #4D4D4D",
"$.	c #6985A1",
"%.	c #CDCDCC",
"&.	c #EDEDEC",
"*.	c #64809D",
"=.	c #3E4F61",
"-.	c #2D3E4E",
";.	c #EFEFEE",
">.	c #EFEFEF",
",.	c #E3E3E3",
"'.	c #64809B",
").	c #5D7A94",
"!.	c #607C99",
"~.	c #5B7793",
"{.	c #495F75",
"].	c #CACACA",
"^.	c #E2E2E2",
"/.	c #EBEBEB",
"(.	c #E5E5E4",
"_.	c #68849F",
":.	c #5B7894",
"<.	c #54718C",
"[.	c #D6D6D5",
"}.	c #C2C2C1",
"|.	c #EDEDEB",
"1.	c #4C4C4B",
"2.	c #6C88A2",
"3.	c #5F7B97",
"4.	c #263442",
"5.	c #B5B5B3",
"6.	c #D7D7D5",
"7.	c #EAEAE8",
"8.	c #EAEAE9",
"9.	c #DFDFDE",
"0.	c #1A2026",
"a.	c #67849E",
"b.	c #7692AC",
"c.	c #A2A2A1",
"d.	c #C1C1C0",
"e.	c #E1E1DF",
"f.	c #9D9D9C",
"g.	c #CBCBC9",
"h.	c #E4E4E2",
"i.	c #E6E6E4",
"j.	c #E5E5E3",
"k.	c #C0C0BE",
"l.	c #DADAD8",
"m.	c #E2E2E0",
"n.	c #D5D5D3",
"o.	c #989897",
"p.	c #959594",
"q.	c #494948",
"r.	c #949493",
"s.	c #979795",
"t.	c #969694",
"u.	c #A0A09F",
"v.	c #BABAB9",
"w.	c #F3F3F3",
"x.	c #E3E3E1",
"y.	c #C5C5C3",
"z.	c #B5B5B4",
"A.	c #BCBCBB",
"B.	c #C1C1BF",
"C.	c #D0D0CE",
"D.	c #DBDBD9",
"E.	c #DFDFDD",
"F.	c #D9D9D7",
"G.	c #D2D2D1",
"H.	c #D9D9D8",
"I.	c #D8D8D6",
"J.	c #DEDEDC",
"K.	c #E0E0DE",
"L.	c #E9E9E9",
"M.	c #B6B6B5",
"N.	c #323232",
"O.	c #C5C5C4",
"P.	c #C1C1C1",
"Q.	c #979796",
". + @ @ @ @ @ @ @ @ @ @ @ @ @ @ @ @ @ # $                       ",
"+ % & & & & & & & & & & & & & & & & & * = - ;                   ",
"@ & & & & & & & & & & & > > > > > > > * , ' ) !                 ",
"@ & & & & & & & & & > > > > > > > > > ~ { & ] ^ /               ",
"@ & & & & & & & > > > > > > > > > ( ( _ : ( ( < [ }             ",
"@ & & & & > ( > > > > > > ( ( ( | 1 1 % 2 3 = 4 5 6             ",
"@ & & & 7 ! 8 ~ ( > > > ( ( | 1 1 1 9 0 a b c d e f !           ",
"@ & & & g ! h i 7 > ( ( 1 1 1 1 9 * * _ ' = j k l m !           ",
"@ & * n o ! 5 p % * * * * * * * * * * * * * * * * q !           ",
"@ & * * 8 ! r s % * * * * * * * * * * n * * * * * 5 !           ",
"@ > n n t ! u v ] n n n n n n n n n n n n n n n n r !           ",
"@ > w x y ! z A B w w w w w w w w w w w w w w w w r !           ",
"@ C % % D ! E F G % % % % % % % % % % % % % % % % r !           ",
"@ ( H H I ! J K L M B H H H H H B M M H H H H H H u !           ",
"@ ( B M N ! O P Q R S T B B B T U R S L B B B B B u !           ",
"@ 1 T T V ! W Q X Q Y Z L T L Q `  .Y Z ..T T T T +.!           ",
"@ 1 @.@.#.! Q X $.Q Q %.R &.Q X *.=.-.%.R ..;.L @.+.!           ",
"@ 1 >.o ,.! X $.'.).Q Q : Q X !.~.{.U -.].^./.o >.5 !           ",
"@ 7 ....(.! $.'._.).Q Q Q X ~.:.<.Q U U -.Q [.Z &.}.!           ",
"@ * |.|.1.! '.'.2.Q Q ).).*.3.Q <.Q Q U U 4.5.6.7.}.!           ",
"@ x S 8.9.0.a.<.Q <.).b.2.3.<.<.Q Q Q Q Q Q c.Y V d.!           ",
"@ 0 7.7.e.! Q Q Q Q Q Q Q Q <.Q Q Q Q Q Q Q f.g.h.E !           ",
"@ B i.j.! ! ! ! ! ! ! ! ! ! ! ! ! ! ! ! ! ! ! k.l.J !           ",
"@ B h.m.n.! o.p.q.r.s.q.r.s.q.r.s.q.r.s.q.t.u.v.n.J !           ",
"@ w.x.m.K y.z.O k.A.B.B.A.B.B.A.B.B.A.B.B.A.+.C.D.J !           ",
"@ M e.e.E.F.G.6.H.I.H.H.I.H.H.I.H.H.I.H.H.I.l.J.K.J !           ",
"+ L.e.e.e.K.E.K.e.K.e.e.K.e.e.K.e.e.K.e.e.K.e.e.e.M.!           ",
"N.O.P.P.d.d.d.d.d.d.d.d.E E E E E E E E E E E E M.Q.!           ",
"  ! ! ! ! ! ! ! ! ! ! ! ! ! ! ! ! ! ! ! ! ! ! ! ! !             ",
"                                                                ",
"                                                                ",
"                                                                "};
