/* XPM */
static char * wire_xpm[] = {
"32 31 150 2",
"  	c None",
". 	c #E0B5AE",
"+ 	c #DEB2AA",
"@ 	c #D39F90",
"# 	c #C88974",
"$ 	c #BD7659",
"% 	c #E1B6AF",
"& 	c #DFB3AC",
"* 	c #D9A79C",
"= 	c #CD9280",
"- 	c #C17C63",
"; 	c #B56848",
"> 	c #DCAEA4",
", 	c #D19A8A",
"' 	c #C6846E",
") 	c #BA6F51",
"! 	c #AF5B36",
"~ 	c #A64B21",
"{ 	c #DDB0A7",
"] 	c #D5A294",
"^ 	c #CA8C78",
"/ 	c #BE775C",
"( 	c #B26240",
"_ 	c #A74D24",
": 	c #A14216",
"< 	c #E6C28E",
"[ 	c #DAB08C",
"} 	c #CE9482",
"| 	c #C27F66",
"1 	c #B66A4A",
"2 	c #AB552E",
"3 	c #9F4013",
"4 	c #9C3A0B",
"5 	c #F3E538",
"6 	c #DEDE05",
"7 	c #CAC80C",
"8 	c #C5B11D",
"9 	c #B27B28",
"0 	c #A24C1A",
"a 	c #9D3C0A",
"b 	c #9C3909",
"c 	c #F5F600",
"d 	c #D5D900",
"e 	c #C9CE00",
"f 	c #C3C501",
"g 	c #A59208",
"h 	c #945709",
"i 	c #9E5A05",
"j 	c #0000FF",
"k 	c #FEFE00",
"l 	c #E9EC00",
"m 	c #CED300",
"n 	c #CACF00",
"o 	c #B7BB00",
"p 	c #8F8F00",
"q 	c #857600",
"r 	c #9F7602",
"s 	c #FDFD00",
"t 	c #DCDF00",
"u 	c #A7AA00",
"v 	c #828300",
"w 	c #8F9000",
"x 	c #ABAC00",
"y 	c #F7F700",
"z 	c #D0D400",
"A 	c #929400",
"B 	c #7A7A00",
"C 	c #9B9C00",
"D 	c #B4B500",
"E 	c #FCFC00",
"F 	c #ECEE00",
"G 	c #C5CA00",
"H 	c #7B7C00",
"I 	c #787800",
"J 	c #DFE200",
"K 	c #C6CB00",
"L 	c #AEB200",
"M 	c #797900",
"N 	c #808000",
"O 	c #FFFF00",
"P 	c #EEF000",
"Q 	c #BFC400",
"R 	c #9A9C00",
"S 	c #818100",
"T 	c #8C8D00",
"U 	c #E3E600",
"V 	c #B4B700",
"W 	c #898A00",
"X 	c #A3A600",
"Y 	c #7C7D00",
"Z 	c #9C9D00",
"` 	c #F4F600",
" .	c #CCD100",
"..	c #C3C800",
"+.	c #919300",
"@.	c #ADAF00",
"#.	c #FBFB00",
"$.	c #E6E900",
"%.	c #B4B800",
"&.	c #838400",
"*.	c #7E7F00",
"=.	c #F4F400",
"-.	c #D8D900",
";.	c #C9CB00",
">.	c #C9CD00",
",.	c #A0A300",
"'.	c #DCB400",
").	c #C3A000",
"!.	c #C1AA00",
"~.	c #C2B900",
"{.	c #8B8C00",
"].	c #D89F00",
"^.	c #D29700",
"/.	c #B88300",
"(.	c #B58300",
"_.	c #917A00",
":.	c #8F8E00",
"<.	c #D59800",
"[.	c #CC9200",
"}.	c #B58100",
"|.	c #A87800",
"1.	c #9F7700",
"2.	c #9D9600",
"3.	c #C78E00",
"4.	c #B78200",
"5.	c #AF7C00",
"6.	c #A27300",
"7.	c #A47800",
"8.	c #AF8E00",
"9.	c #C18A00",
"0.	c #B58000",
"a.	c #A77700",
"b.	c #A37400",
"c.	c #BB8500",
"d.	c #AE7C00",
"e.	c #AD7B00",
"f.	c #9B6F40",
"g.	c #986C28",
"h.	c #A57501",
"i.	c #3626BC",
"j.	c #402DA1",
"k.	c #775446",
"l.	c #1811E0",
"m.	c #291DC1",
"n.	c #4E00B0",
"o.	c #4B1DA2",
"p.	c #C90035",
"q.	c #FF0000",
"r.	c #E60017",
"s.	c #9A274F",
"                                                                ",
"                                                                ",
"                                                . + @ # $       ",
"                                              % & * = - ;       ",
"                                              . > , ' ) ! ~     ",
"                                            . { ] ^ / ( _ :     ",
"                                            < [ } | 1 2 3 4     ",
"                                            5 6 7 8 9 0 a b     ",
"                                            c d e f g h i       ",
"    j j j j j j j                         k l m n o p q r       ",
"                j                         s t n n u v w x       ",
"                j                       k y z n n A B C D       ",
"                j                       E F n e G H I           ",
"                j                       y J n K L M N           ",
"                j                     O P d n Q R S T           ",
"                j                     k U m n V W T             ",
"                j                     O d n n X Y Z             ",
"                j                   k `  .n ..+.M @.            ",
"                j                   #.$.n n %.&.*.              ",
"                j                   =.-.;.>.,.H *.              ",
"                j                   '.).!.~.{.N                 ",
"                j                 ].^././.(._.:.                ",
"                j                 <.[./.}.|.1.2.                ",
"                j                 <.3.4.5.6.7.8.                ",
"                j                 <.9.0.a.b.                    ",
"                j                 <.c.d.b.e.                    ",
"                j                 f.g.h.|.                      ",
"                j                 i.j.k.                        ",
"                j                 l.m.                          ",
"                n.                o.                            ",
"                p.    q.    q.  r.s.                            "};
