/* XPM */
static char * zoom_region_xpm[] = {
"24 24 202 2",
"  	c None",
". 	c #343434",
"+ 	c #2D2D2D",
"@ 	c #292929",
"# 	c #262626",
"$ 	c #2E2E2E",
"% 	c #303030",
"& 	c #737373",
"* 	c #A1A1A1",
"= 	c #B4B4B4",
"- 	c #B2B2B2",
"; 	c #9D9D9D",
"> 	c #676767",
", 	c #202020",
"' 	c #1C1C1C",
") 	c #272727",
"! 	c #616161",
"~ 	c #CACACA",
"{ 	c #CFCFCF",
"] 	c #D0D0D0",
"^ 	c #CECECE",
"/ 	c #C9C9C9",
"( 	c #C1C1C1",
"_ 	c #A7A7A7",
": 	c #4C4C4C",
"< 	c #131313",
"[ 	c #222222",
"} 	c #757575",
"| 	c #D3D3D3",
"1 	c #DBDBDB",
"2 	c #E7E7E7",
"3 	c #EFEFEF",
"4 	c #F3F3F3",
"5 	c #F1F1F1",
"6 	c #E5E5E5",
"7 	c #D2D2D2",
"8 	c #BCBCBC",
"9 	c #5E5E5E",
"0 	c #101010",
"a 	c #212121",
"b 	c #5B5B5B",
"c 	c #CCCCCC",
"d 	c #D7D7D7",
"e 	c #F5F5F5",
"f 	c #FAFAFA",
"g 	c #FBFBFB",
"h 	c #F8F8F8",
"i 	c #F0F0F0",
"j 	c #E1E1E1",
"k 	c #C2C2C2",
"l 	c #434343",
"m 	c #0F0F0F",
"n 	c #1D1D1D",
"o 	c #3F3F3F",
"p 	c #444444",
"q 	c #4A4A4A",
"r 	c #4B4B4B",
"s 	c #FDFDFD",
"t 	c #FCFCFC",
"u 	c #F2F2F2",
"v 	c #ECECEC",
"w 	c #E4E4E4",
"x 	c #ABABAB",
"y 	c #0E0E0E",
"z 	c #1B1B1B",
"A 	c #6A6963",
"B 	c #C8C1AB",
"C 	c #D7CFB7",
"D 	c #EAE2C8",
"E 	c #EEE7CB",
"F 	c #F1E0A4",
"G 	c #FEFEFE",
"H 	c #F9F9F9",
"I 	c #EEEEEE",
"J 	c #E6E6E6",
"K 	c #575757",
"L 	c #090909",
"M 	c #141414",
"N 	c #A2997B",
"O 	c #CEBF8C",
"P 	c #E2D39A",
"Q 	c #EAD99F",
"R 	c #EDDCA1",
"S 	c #F0DFA3",
"T 	c #F4F4F4",
"U 	c #DCDCDC",
"V 	c #9B9B9B",
"W 	c #060606",
"X 	c #111111",
"Y 	c #BCAF84",
"Z 	c #D4C591",
"` 	c #E3D49B",
" .	c #E9D99F",
"..	c #ECDBA0",
"+.	c #EFDEA3",
"@.	c #6F6C5E",
"#.	c #818B94",
"$.	c #6D695C",
"%.	c #EDEDED",
"&.	c #BFBFBF",
"*.	c #BCAF80",
"=.	c #D8C993",
"-.	c #E0D199",
";.	c #E6D69D",
">.	c #A7B7C7",
",.	c #484848",
"'.	c #C8C8C8",
").	c #EAEAEA",
"!.	c #E0E0E0",
"~.	c #BABABA",
"{.	c #050505",
"].	c #0B0B0B",
"^.	c #9D936E",
"/.	c #D6C792",
"(.	c #DCCD96",
"_.	c #E1D29A",
":.	c #E5D59C",
"<.	c #E8D89E",
"[.	c #494949",
"}.	c #5C5C5C",
"|.	c #7F8892",
"1.	c #96A8BC",
"2.	c #818F9E",
"3.	c #7E7E7E",
"4.	c #D1D1D1",
"5.	c #939393",
"6.	c #020202",
"7.	c #0A0A0A",
"8.	c #5B5746",
"9.	c #CFC08D",
"0.	c #DBCC95",
"a.	c #DFD098",
"b.	c #474747",
"c.	c #A1B0C1",
"d.	c #93A4B8",
"e.	c #90A2B5",
"f.	c #B6B6B6",
"g.	c #D4D4D4",
"h.	c #000000",
"i.	c #090908",
"j.	c #AB9F74",
"k.	c #D1C38E",
"l.	c #D7C892",
"m.	c #DACB94",
"n.	c #778088",
"o.	c #8FA0B3",
"p.	c #8C9DB0",
"q.	c #8A9AAD",
"r.	c #768290",
"s.	c #CBCBCB",
"t.	c #040303",
"u.	c #383527",
"v.	c #C2B484",
"w.	c #C8BA88",
"x.	c #CABC89",
"y.	c #CFC18D",
"z.	c #414141",
"A.	c #93A1B0",
"B.	c #8798A9",
"C.	c #8596A7",
"D.	c #8493A5",
"E.	c #8090A1",
"F.	c #3B3B3B",
"G.	c #BDBDBD",
"H.	c #070706",
"I.	c #4D4734",
"J.	c #B8AC7D",
"K.	c #BDB081",
"L.	c #7B4E44",
"M.	c #8A97A5",
"N.	c #7F8E9F",
"O.	c #7D8D9E",
"P.	c #7C8A9B",
"Q.	c #788796",
"R.	c #717F8F",
"S.	c #AAA285",
"T.	c #030302",
"U.	c #373737",
"V.	c #7F8B99",
"W.	c #748291",
"X.	c #717E8D",
"Y.	c #59636F",
"Z.	c #1A1D21",
"`.	c #F5E9BF",
" +	c #BFAC66",
".+	c #3B3520",
"++	c #2D3135",
"@+	c #4B545E",
"#+	c #5F6A77",
"$+	c #4A525C",
"%+	c #25292E",
"&+	c #EED680",
"*+	c #464646",
"=+	c #262A30",
"-+	c #07080A",
";+	c #C7D0D8",
">+	c #7590AE",
",+	c #617891",
"'+	c #686868",
")+	c #797979",
"!+	c #3A3A3A",
"~+	c #1F1F1F",
"              . + @ # # #                       ",
"          $ % & * = - ; > , '                   ",
"        ) ! = ~ { ] ^ / ( _ : <                 ",
"      [ } ~ | 1 2 3 4 5 6 7 8 9 0               ",
"    a b c d 6 e f g f h e i j k l m             ",
"    n o o p q q r s t g h u v w x y             ",
"  z A B C D E F r G s 7 H e I J 1 K L           ",
"  M N O P Q R S r G | q { T I J U V W           ",
"  X Y Z `  ...+.r s @.#.$.u %.6 1 &.W           ",
"  y *.=.-.;. ...q ~ q >.,.'.).!.d ~.{.          ",
"  ].^./.(._.:.<.[.}.|.1.2.3.w 1 4.5.6.          ",
"  7.8.9./.0.a.P b.b.c.d.e.l f.g.~ : h.          ",
"    i.j.O k.l.m.p n.o.p.q.r.q s.* 6.            ",
"    t.u.v.w.x.y.z.A.B.C.D.E.F.G.$ h.            ",
"    h.H.I.J.K.L.M.N.O.O.P.Q.R.+ h.              ",
"    h.S.T.y + U.V.W.W.W.X.Y.Z.h.h.h.            ",
"    h.`. +.+6.++@+#+#+$+%+h.h.  h.h.h.h.        ",
"    h.`.&+&+*+=+-+h.h.h.h.        , , h.h.      ",
"    h.h.h.h.;+>+>+>+,+h.          h.'+. h.h.    ",
"          h.h.h.h.h.h.h.            h.)+!+h.h.  ",
"                                      h.'+~+h.  ",
"                                        h.h.    ",
"                                                ",
"                                                "};
