/* XPM */
static char * zoom_pan_xpm[] = {
"24 24 243 2",
"  	c None",
". 	c #000000",
"+ 	c #0E0E0E",
"@ 	c #282828",
"# 	c #616161",
"$ 	c #D3D3D3",
"% 	c #F6F6F6",
"& 	c #FFFFFF",
"* 	c #F9F9F9",
"= 	c #F9F9F8",
"- 	c #E7E7E7",
"; 	c #E4E4E4",
"> 	c #CDCDCD",
", 	c #1F1F1F",
"' 	c #EFEFEE",
") 	c #AFAFAE",
"! 	c #E9E9E9",
"~ 	c #B3B3B3",
"{ 	c #383838",
"] 	c #FEFEFE",
"^ 	c #FDFDFD",
"/ 	c #EEEEEE",
"( 	c #A4A4A3",
"_ 	c #F0F0F0",
": 	c #F4F4F4",
"< 	c #ABABAB",
"[ 	c #050505",
"} 	c #FCFCFB",
"| 	c #FBFBFB",
"1 	c #F2F2F2",
"2 	c #9E9E9E",
"3 	c #FAFAF9",
"4 	c #F8F8F7",
"5 	c #F7F7F6",
"6 	c #D3D3D2",
"7 	c #B9B7B6",
"8 	c #838381",
"9 	c #848381",
"0 	c #6A6763",
"a 	c #F6F6F5",
"b 	c #8F8F8E",
"c 	c #9F9E9D",
"d 	c #D8D8D8",
"e 	c #D9D7D5",
"f 	c #C8C8C6",
"g 	c #B4B4B2",
"h 	c #716F6B",
"i 	c #8F8F8F",
"j 	c #878686",
"k 	c #EEEDEC",
"l 	c #C3BEA2",
"m 	c #A29C86",
"n 	c #D6D5D3",
"o 	c #30302F",
"p 	c #6C6C6A",
"q 	c #7C7970",
"r 	c #A6A48D",
"s 	c #D7D4B7",
"t 	c #979796",
"u 	c #E9E2BF",
"v 	c #D1C8AB",
"w 	c #606060",
"x 	c #636050",
"y 	c #E8E1BD",
"z 	c #7C7870",
"A 	c #F8F7F6",
"B 	c #F5F4F3",
"C 	c #C6C4A9",
"D 	c #DAD7B9",
"E 	c #666666",
"F 	c #1C1B1B",
"G 	c #E7DFBC",
"H 	c #D0C5A8",
"I 	c #1E1E1E",
"J 	c #C0B798",
"K 	c #CFC7A5",
"L 	c #0D0D0D",
"M 	c #88837A",
"N 	c #F6F5F4",
"O 	c #F5F5F3",
"P 	c #F2F1F0",
"Q 	c #737262",
"R 	c #615F52",
"S 	c #EDEACA",
"T 	c #D1CCB1",
"U 	c #E7DCBB",
"V 	c #CFC3A5",
"W 	c #5C5849",
"X 	c #E4D9B2",
"Y 	c #8C846D",
"Z 	c #131313",
"` 	c #F4F3F2",
" .	c #F3F2F1",
"..	c #F0F0EE",
"+.	c #E2E2E0",
"@.	c #A5A38D",
"#.	c #DED8BD",
"$.	c #96907D",
"%.	c #E6DBBA",
"&.	c #BCB192",
"*.	c #E1D3AD",
"=.	c #514B3D",
"-.	c #040404",
";.	c #847B66",
">.	c #E4D8B5",
",.	c #E8E8E6",
"'.	c #575756",
").	c #424141",
"!.	c #EBE4C7",
"~.	c #D3CDB1",
"{.	c #CFC2A4",
"].	c #E1D3AC",
"^.	c #CAB997",
"/.	c #6B6350",
"(.	c #E0CCA9",
"_.	c #6C6654",
":.	c #898988",
"<.	c #D5D4D3",
"[.	c #C4BEA6",
"}.	c #EAE3C4",
"|.	c #E8E1C0",
"1.	c #E7DDBB",
"2.	c #DCCEAF",
"3.	c #E2D1AF",
"4.	c #DFCEA8",
"5.	c #C9B894",
"6.	c #DEC7A3",
"7.	c #C6B394",
"8.	c #ECECEA",
"9.	c #EEEBCB",
"0.	c #7D7B6A",
"a.	c #4F4F4E",
"b.	c #504D43",
"c.	c #EAE2C4",
"d.	c #BBB49A",
"e.	c #E8DDBE",
"f.	c #C0B59F",
"g.	c #E2D2B1",
"h.	c #DFCDA7",
"i.	c #D6C39C",
"j.	c #DCC49F",
"k.	c #CBB494",
"l.	c #81745F",
"m.	c #E9E8E6",
"n.	c #EDEACB",
"o.	c #868273",
"p.	c #EBE4C9",
"q.	c #9B988F",
"r.	c #EBE1C7",
"s.	c #918C82",
"t.	c #DFD2B6",
"u.	c #9F998C",
"v.	c #CFB997",
"w.	c #D4B998",
"x.	c #C4B08F",
"y.	c #E5E4E1",
"z.	c #747472",
"A.	c #D9D3BA",
"B.	c #8C8977",
"C.	c #EEE6CF",
"D.	c #A5A49E",
"E.	c #D6CEB6",
"F.	c #9C9993",
"G.	c #DFCEB3",
"H.	c #99958D",
"I.	c #D5C0A1",
"J.	c #C7B08F",
"K.	c #776C57",
"L.	c #E3E2DF",
"M.	c #DAD9D6",
"N.	c #3B3B3A",
"O.	c #959380",
"P.	c #ECE6CA",
"Q.	c #D2CCB3",
"R.	c #DAD4BC",
"S.	c #EDE6CC",
"T.	c #929088",
"U.	c #D4CAAD",
"V.	c #A6A29C",
"W.	c #D1BF9F",
"X.	c #918A7C",
"Y.	c #B29E80",
"Z.	c #B19F7F",
"`.	c #57544E",
" +	c #EDEDED",
".+	c #E1E0DD",
"++	c #DDDBD8",
"@+	c #D2D1CE",
"#+	c #636155",
"$+	c #ECE7CA",
"%+	c #D9D2B9",
"&+	c #EBE5C7",
"*+	c #C1BBA5",
"=+	c #E7DDBC",
"-+	c #BEBAB2",
";+	c #CCBA9B",
">+	c #776B57",
",+	c #B29F80",
"'+	c #51483A",
")+	c #7B776D",
"!+	c #D1D1D1",
"~+	c #E1DFDB",
"{+	c #DFDDD9",
"]+	c #D9D8D4",
"^+	c #8D8C8A",
"/+	c #212121",
"(+	c #C5BFA8",
"_+	c #E7DCBD",
":+	c #CBC2B0",
"<+	c #CAB99A",
"[+	c #C4B290",
"}+	c #9F9174",
"|+	c #8A8885",
"1+	c #807B72",
"2+	c #999891",
"3+	c #A39E92",
"4+	c #A49E93",
"5+	c #A29C91",
"6+	c #9D978B",
"7+	c #79746C",
"8+	c #252421",
"9+	c #1B1A17",
"0+	c #D8D3B7",
"a+	c #E8DCBE",
"b+	c #E6D8B9",
"c+	c #CBBD9A",
"d+	c #B7A787",
"e+	c #A29677",
"f+	c #79756C",
"g+	c #5B574E",
"h+	c #D2CDB2",
"i+	c #E7DEBD",
"j+	c #E5D7B6",
"k+	c #C1B395",
"l+	c #AEA183",
"m+	c #A69A7B",
"n+	c #C3BFA3",
"o+	c #C2BB9F",
"p+	c #C1B69B",
"q+	c #ADA288",
"r+	c #7E7761",
"s+	c #7D7760",
"t+	c #26241E",
"    . . . . . . . . . . . . . + @ #             ",
"  . $ % & & & & & & & & * = = - ; > ,           ",
"  . % & & & & & & & & & & = ' ) ! & ~ {         ",
"  . & & & & & & & ] & ] ^ = / ( _ & : < [       ",
"  . & & & & & ] ^ } ^ } | = 1 2 . . . . .       ",
"  . & & & ] ^ } | 3 | 3 4 5 1 6 7 8 9 0 .       ",
"  . & ] ^ } | = 5 a 4 b . . c d e f g h .       ",
"  . & } | 3 i . . j k . l m . n . o p q .       ",
"  . & 3 = 5 . r s . t . u v . w x y . z .       ",
"  . & 4 A B . C D E F . G H . I J K L M .       ",
"  . & N O P Q R S T . . U V . W X Y Z . . .     ",
"  . & `  ...+.. @.#.$.. %.V . &.*.=.-.;.>..     ",
"  . & `  ...,.'.).!.~.. %.{.. ].^.. /.(._..     ",
"  . & ..:.. . <.. [.}.|.1.2.3.4.5.. 6.7.. .     ",
"  . & 8.. 9.0.. a.b.c.d.e.f.g.h.i.j.k.l..       ",
"  . & m.. 9.n.o.. . p.q.r.s.t.u.v.w.x.. .       ",
"  . & y.z.. n.A.B.Z C.D.E.F.G.H.I.J.K.. .       ",
"  . * L.M.N.O.P.Q.R.S.T.U.V.W.X.Y.Z.. `..       ",
"  .  +.+++@+. #+$+%+&+*+=+-+;+>+,+'+. )+.       ",
"  . !+~+{+]+^+. /+(+&+}._+:+<+[+}+. |+1+.       ",
"  . 2+3+4+5+6+7+8+9+0+c.a+b+c+d+e+. f+g+.       ",
"    . . . . . . . . h+}.i+j+k+l+m+. . . .       ",
"                  . r n+o+p+q+r+s+t+            ",
"                  .                             "};
