/* XPM */
static char * log_xpm[] = {
"16 16 2 2",
"  	c None",
". 	c #000000",
"                                ",
"  . . .   . . . .     . . . .   ",
"                                ",
"  . . . . .     . .   . . . .   ",
"                                ",
"  .   . .   . . . . . . .   .   ",
"                                ",
"    . . . . .     . . . .       ",
"                                ",
"  . . . . . . . . . .   . . .   ",
"                                ",
"  . . . . . .     . . . . . .   ",
"                                ",
"  . . . . .       . . . .       ",
"                                ",
"                                "};
