/* XPM */
static char * menu_zoom_xpm[] = {
"16 16 45 1",
" 	c None",
".	c #303030",
"+	c #363636",
"@	c #2F2F2F",
"#	c #191919",
"$	c #A29FA2",
"%	c #4A4A4A",
"&	c #EAE8EA",
"*	c #FFFFFF",
"=	c #D3D0D3",
"-	c #262626",
";	c #989598",
">	c #3E3E3E",
",	c #DCDCDC",
"'	c #D8D7D8",
")	c #272727",
"!	c #9A979A",
"~	c #E5E2E5",
"{	c #E1E0E1",
"]	c #202020",
"^	c #171717",
"/	c #CAC8CA",
"(	c #323232",
"_	c #0D0D0D",
":	c #343434",
"<	c #9B989B",
"[	c #050505",
"}	c #DFDBDF",
"|	c #E5E3E5",
"1	c #989698",
"2	c #030303",
"3	c #252525",
"4	c #9C999C",
"5	c #969396",
"6	c #000000",
"7	c #DEDADE",
"8	c #DEDBDE",
"9	c #101010",
"0	c #949194",
"a	c #010101",
"b	c #020202",
"c	c #959295",
"d	c #0B0B0B",
"e	c #040404",
"f	c #060606",
"                ",
"        .+@#    ",
"      $%& *=-;  ",
"      >  ,'  )! ",
"     #~ {    ~] ",
"     ^ /      (!",
"     _        :<",
"     [}      |)1",
"      2      345",
"     6667**8915 ",
"    666066ab00  ",
"   66600 0000   ",
"  6660c         ",
" a660c          ",
"dea00           ",
"<f00            "};
