/* XPM */
static char * mini_icon_plot_xpm[] = {
"16 16 14 1",
" 	c None",
".	c #000000",
"+	c #D89C90",
"@	c #D06458",
"#	c #843424",
"$	c #505448",
"%	c #E0E4E0",
"&	c #9CACA4",
"*	c #D0D4C4",
"=	c #686868",
"-	c #909894",
";	c #D14B12",
">	c #964537",
",	c #EF825B",
"                ",
" .............. ",
" .+@@@@@@@#+@#. ",
" .$$$$$$$$$$$$. ",
" .%&%&%&%&%&%&. ",
" .&*&*=*&*&*&-. ",
" .%&*;>,*&*&;&. ",
" .&*;,>;,*&*;-. ",
" .%;,&=&;&*;,&. ",
" .&;&*=*;,&;,-. ",
" .%======>>>=&. ",
" .&*&*=*&;&;&-. ",
" .%&*&=&*,;&*&. ",
" .&-&-&-&-&-&-. ",
" .............. ",
"                "};
