/* XPM */
static char * plot_xpm[] = {
"16 16 53 1",
" 	c None",
".	c #1E1E1E",
"+	c #272727",
"@	c #2E2E2E",
"#	c #932F3D",
"$	c #993242",
"%	c #A33142",
"&	c #962E3D",
"*	c #70232E",
"=	c #932F3F",
"-	c #A23243",
";	c #292929",
">	c #7F2836",
",	c #922F3E",
"'	c #9F3040",
")	c #963141",
"!	c #2C2C2C",
"~	c #9D3243",
"{	c #6D232F",
"]	c #933040",
"^	c #8A2D3B",
"/	c #952D3C",
"(	c #1E1D1D",
"_	c #9B3444",
":	c #AF3547",
"<	c #491D23",
"[	c #932C3B",
"}	c #2B2B2B",
"|	c #2D2D2D",
"1	c #333333",
"2	c #2A2A2A",
"3	c #2C2B2B",
"4	c #552930",
"5	c #8A313E",
"6	c #872A38",
"7	c #9F3141",
"8	c #813944",
"9	c #AE384A",
"0	c #571D26",
"a	c #9E3948",
"b	c #3E2D2F",
"c	c #94303F",
"d	c #7D2532",
"e	c #5D2A32",
"f	c #641E29",
"g	c #8E2B3A",
"h	c #AE3A4B",
"i	c #AC3445",
"j	c #6B2F38",
"k	c #A53445",
"l	c #A13141",
"m	c #63212B",
"n	c #6A212C",
"        .       ",
"        +       ",
"        @       ",
"  #$%   .      &",
" *=  -  ;     >,",
" '   )  !     ~ ",
"{]   ^/ (     _ ",
":<    [ }     ] ",
"_|;1!2_}}1231451",
"6     78.    90 ",
"       ab    c  ",
"       de   fg  ",
"        h   i   ",
"        jk_l    ",
"        +mn     ",
"        .       "};
