/* XPM */
static char *tool_text_xpm [] = {
"20 20 3 1",
". 	c None",
"a	c #000000",
"e	c #777777",
  "....................",
  "....................",
  "....................",
  "....aaaaaaaaaaa.....",
  "....aaeeaaaeeaae....",
  "....aee.aaae..ae....",
  ".....e..aaae...e....",
  ".......eaae.........",
  ".......eaae.........",
  ".......eaae.........",
  ".......aaae.........",
  ".......aae..........",
  "......eaae..........",
  "......eaae..........",
  "......aaae..........",
  ".....aaaaa..........",
  "......eeeee.........",
  "....................",
  "....................",
  "...................."
};
