/* XPM */
static char * tool_wire_xpm[] = {
"24 21 12 1",
" 	c None",
".	c #000000",
"+	c #DCCB94",
"@	c #8E7D45",
"#	c #0736F2",
"$	c #D4C38D",
"%	c #AD8E30",
"&	c #756020",
"*	c #C5C5BF",
"=	c #A7A79A",
"-	c #060605",
";	c #A3A395",
"                     .  ",
"                    .+. ",
"                   .+@. ",
"                  .+@.  ",
"                 .+@.   ",
" ##########     .+@.    ",
"          #    .+@.     ",
"          #   .+@.      ",
"          #  .+@.       ",
"          # .$@.        ",
"          #%&..*====    ",
"          #-.;;====     ",
"          #             ",
"          #             ",
"          #             ",
"          #             ",
"          #             ",
"          #             ",
"          #             ",
"          #             ",
"          ############# "};
