/* XPM */
static char * grid_xpm[] = {
"24 24 29 1",
" 	c None",
".	c #000000",
"+	c #E9E9E9",
"@	c #FFFFFF",
"#	c #B1B1B1",
"$	c #FBFBFB",
"%	c #BABABA",
"&	c #E4E4E4",
"*	c #ECECEC",
"=	c #B9B9B9",
"-	c #BCBCBC",
";	c #E7E7E7",
">	c #B8B8B8",
",	c #969696",
"'	c #7F7F7F",
")	c #707070",
"!	c #737373",
"~	c #ABABAB",
"{	c #EBEBEB",
"]	c #7B7B7B",
"^	c #858585",
"/	c #747474",
"(	c #E5E5E5",
"_	c #C3C3C3",
":	c #BFBFBF",
"<	c #757575",
"[	c #7E7E7E",
"}	c #BBBBBB",
"|	c #A3A3A3",
"                        ",
"                        ",
"                        ",
"   .................    ",
"   .+@@@#$$@@@%@@@&.    ",
"   .@*************=.    ",
"   .@***-***;*-***>.    ",
"   .,**-'-***-'-**).    ",
"   .@***-*****-***-.    ",
"   .@*************-.    ",
"   .@***-*****-***-.    ",
"   .,**-'-***-'-**!.    ",
"   .@***~*****-*{*-.    ",
"   .@*************>.    ",
"   .@***-****+-***-.    ",
"   .,**-]-***-^-**/.    ",
"   .@***-(**;*-***>.    ",
"   .@*****{{******-.    ",
"   .+__:<-----[>-}|.    ",
"   .................    ",
"                        ",
"                        ",
"                        ",
"                        "};
