/* XPM */
static char * mini_icon_xpm[] = {
"16 16 12 1",
" 	c None",
".	c #000000",
"+	c #D89C90",
"@	c #D06458",
"#	c #843424",
"$	c #505448",
"%	c #E0E4E0",
"&	c #9CACA4",
"*	c #D0D4C4",
"=	c #077C51",
"-	c #61A58A",
";	c #909894",
"                ",
" .............. ",
" .+@@@@@@@#+@#. ",
" .$$$$$$$$$$$$. ",
" .%&%&%&%&%&%&. ",
" .&*&*&=-*=-&;. ",
" .%&*&*=-=-&*&. ",
" .&*&*&==-&*&;. ",
" .%=====-&*&*&. ",
" .&*---==*&*&;. ",
" .%&*&*=-=*&*&. ",
" .&*&*&=--=*&;. ",
" .%&*&*=-&-=*&. ",
" .&;&;&;&;&;&;. ",
" .............. ",
"                "};
