<?xml version="1.0" encoding="UTF-8" standalone="no"?>
<!-- Created with Inkscape (http://www.inkscape.org/) -->

<svg
   xmlns:dc="http://purl.org/dc/elements/1.1/"
   xmlns:cc="http://creativecommons.org/ns#"
   xmlns:rdf="http://www.w3.org/1999/02/22-rdf-syntax-ns#"
   xmlns:svg="http://www.w3.org/2000/svg"
   xmlns="http://www.w3.org/2000/svg"
   xmlns:sodipodi="http://sodipodi.sourceforge.net/DTD/sodipodi-0.dtd"
   xmlns:inkscape="http://www.inkscape.org/namespaces/inkscape"
   width="128"
   height="128"
   id="svg3360"
   version="1.1"
   inkscape:version="0.91 r13725"
   viewBox="0 0 128 128"
   sodipodi:docname="oregano.svg">
  <title
     id="title4269">Oregano Application Icon</title>
  <defs
     id="defs3362" />
  <sodipodi:namedview
     id="base"
     pagecolor="#ffffff"
     bordercolor="#666666"
     borderopacity="1.0"
     inkscape:pageopacity="0.0"
     inkscape:pageshadow="2"
     inkscape:zoom="4"
     inkscape:cx="22.381693"
     inkscape:cy="42.022821"
     inkscape:current-layer="g4228"
     showgrid="true"
     inkscape:document-units="px"
     inkscape:grid-bbox="true"
     inkscape:window-width="1920"
     inkscape:window-height="1136"
     inkscape:window-x="0"
     inkscape:window-y="27"
     inkscape:window-maximized="1">
    <inkscape:grid
       type="xygrid"
       id="grid4265" />
  </sodipodi:namedview>
  <metadata
     id="metadata3365">
    <rdf:RDF>
      <cc:Work
         rdf:about="">
        <dc:format>image/svg+xml</dc:format>
        <dc:type
           rdf:resource="http://purl.org/dc/dcmitype/StillImage" />
        <dc:title>Oregano Application Icon</dc:title>
        <dc:date>Wed 14 Oct, 2015</dc:date>
        <dc:creator>
          <cc:Agent>
            <dc:title>Bernhard Schuster</dc:title>
          </cc:Agent>
        </dc:creator>
        <dc:rights>
          <cc:Agent>
            <dc:title>(C) Bernhard Schuster</dc:title>
          </cc:Agent>
        </dc:rights>
        <dc:publisher>
          <cc:Agent>
            <dc:title>Bernhard Schuster</dc:title>
          </cc:Agent>
        </dc:publisher>
        <dc:source>ahoi.io</dc:source>
        <dc:description>Application icon for Oregano schematic design and simulation tool.</dc:description>
        <dc:contributor>
          <cc:Agent>
            <dc:title></dc:title>
          </cc:Agent>
        </dc:contributor>
      </cc:Work>
    </rdf:RDF>
  </metadata>
  <g
     id="layer1"
     inkscape:label="Layer 1"
     inkscape:groupmode="layer"
     transform="translate(0,64)">
    <g
       id="g4228"
       transform="matrix(2.7633864,0,0,2.7633864,-19.486141,-81.256278)">
      <path
         inkscape:connector-curvature="0"
         id="path4191"
         d="m 8.7661472,17.817372 c 0.09503,0 0.192889,-0.02305 0.285078,0 0.02305,0.0058 -0.0168,0.05447 0,0.07127 0.01953,0.01954 0.306233,-0.0167 0.356347,0 0.05039,0.0168 0.09214,0.05447 0.142539,0.07127 0.04617,0.01539 0.4924288,0 0.5701558,0 0.04751,0 0.09746,-0.01502 0.142539,0 0.03187,0.01062 0.04122,0.05624 0.07127,0.07127 0.02125,0.01063 0.04751,0 0.07127,0 0.04751,0 0.09503,0 0.142539,0 0.09203,0 0.437126,-0.01544 0.498886,0 0.03259,0.0081 0.04332,0.05263 0.07127,0.07127 0.0442,0.02947 0.09214,0.05447 0.142539,0.07127 0.02254,0.0075 0.04751,0 0.07127,0 0.07001,0 0.38048,-0.01571 0.427617,0 0.05039,0.0168 0.091,0.05839 0.142539,0.07127 0.0461,0.01152 0.09503,0 0.142539,0 0.166296,0 0.332591,0 0.498887,0 0.07127,0 0.142539,0 0.213808,0 0.02376,0 0.04873,-0.0075 0.07127,0 0.05039,0.0168 0.09214,0.05447 0.142539,0.07127 0.02254,0.0075 0.04751,0 0.07127,0 0.05504,0 0.384136,-0.01449 0.427617,0 0.0504,0.0168 0.09214,0.05447 0.142539,0.07127 0.06325,0.02108 0.309679,-0.02333 0.356347,0 0.03005,0.01502 0.04122,0.05624 0.07127,0.07127 0.04479,0.0224 0.240283,-0.0224 0.285078,0 0.03005,0.01502 0.04122,0.05624 0.07127,0.07127 0.04496,0.02248 0.311386,-0.02248 0.356348,0 0.03005,0.01503 0.04122,0.05624 0.07127,0.07127 0.02125,0.01062 0.04751,0 0.07127,0 0.02376,0 0.04751,0 0.07127,0 0.166296,0 0.332591,0 0.498887,0 0.0321,0 0.192118,-0.01084 0.213808,0 0.03005,0.01502 0.04122,0.05625 0.07127,0.07127 0.05701,0.02851 0.156792,-0.02851 0.213808,0 0.03005,0.01503 0.04122,0.05624 0.07127,0.07127 0.05701,0.02851 0.156792,-0.02851 0.213808,0 0.03005,0.01503 0.04122,0.05625 0.07127,0.07127 0.0425,0.02125 0.100042,-0.02125 0.142538,0 0.03005,0.01503 0.04122,0.05624 0.07127,0.07127 0.05702,0.02851 0.156793,-0.02851 0.213808,0 0.03005,0.01503 0.04122,0.05625 0.07127,0.07127 0.0425,0.02125 0.100042,-0.02125 0.142539,0 0.03005,0.01502 0.04122,0.05624 0.07127,0.07127 0.0425,0.02125 0.100042,-0.02125 0.142539,0 0.03005,0.01503 0.04122,0.05625 0.07127,0.07127 0.0425,0.02125 0.100042,-0.02125 0.142539,0 0.03005,0.01502 0.04122,0.05624 0.07127,0.07127 0.0425,0.02125 0.100042,-0.02125 0.142539,0 0.03005,0.01502 0.04122,0.05624 0.07127,0.07127 0.07619,0.03809 0.06635,-0.0381 0.142539,0 0.03005,0.01503 0.04122,0.05624 0.07127,0.07127 0.05702,0.02851 0.156793,-0.02851 0.213809,0 0.03005,0.01502 0.04122,0.05625 0.07127,0.07127 0.0448,0.0224 0.240284,-0.0224 0.285078,0 0.03005,0.01503 0.04122,0.05624 0.07127,0.07127 0.07619,0.03809 0.06635,-0.0381 0.142539,0 0.03005,0.01503 0.04122,0.05625 0.07127,0.07127 0.05702,0.02851 0.156793,-0.02851 0.213809,0 0.03005,0.01503 0.04122,0.05624 0.07127,0.07127 0.05702,0.02851 0.156793,-0.02851 0.213809,0 0.03005,0.01503 0.04122,0.05625 0.07127,0.07127 0.05702,0.02851 0.156793,-0.02851 0.213808,0 0.03005,0.01502 0.04122,0.05624 0.07127,0.07127 0.05702,0.02851 0.156793,-0.02851 0.213808,0 0.03005,0.01503 0.04122,0.05625 0.07127,0.07127 0.05701,0.02851 0.156793,-0.02851 0.213808,0 0.03005,0.01502 0.04122,0.05624 0.07127,0.07127 0.05701,0.02851 0.156793,-0.02851 0.213808,0 0.03005,0.01503 0.04122,0.05625 0.07127,0.07127 0.0425,0.02125 0.100042,-0.02125 0.142539,0 0.03005,0.01502 0.04122,0.05624 0.07127,0.07127 0.0425,0.02125 0.100042,-0.02125 0.142539,0 0.03005,0.01502 0.04122,0.05625 0.07127,0.07127 0.0425,0.02125 0.100042,-0.02125 0.142539,0 0.03005,0.01503 0.04122,0.05625 0.07127,0.07127 0.07619,0.03809 0.06635,-0.0381 0.142539,0 0.03005,0.01502 0.04122,0.05625 0.07127,0.07127 0.05701,0.02851 0.156793,-0.02851 0.213808,0 0.03005,0.01502 0.04122,0.05624 0.07127,0.07127 0.0425,0.02125 0.100042,-0.02125 0.142539,0 0.03005,0.01503 0.04122,0.05625 0.07127,0.07127 0.0425,0.02125 0.100042,-0.02125 0.142539,0 0.03005,0.01502 0.04122,0.05625 0.07127,0.07127 0.02125,0.01062 0.05002,-0.01062 0.07127,0 0.03005,0.01503 0.04122,0.05624 0.07127,0.07127 0.02125,0.01063 0.05002,-0.01062 0.07127,0 0.03005,0.01503 0.04122,0.05625 0.07127,0.07127 0.02125,0.01062 0.05002,-0.01062 0.07127,0 0.0601,0.03005 0.08244,0.112489 0.142539,0.142539 0.02125,0.01062 0.05002,-0.01062 0.07127,0 0.236372,0.236371 -0.06719,-0.0336 0.142539,0.07127 0.03005,0.01503 0.04122,0.05625 0.07127,0.07127 0.0425,0.02125 0.100042,-0.02125 0.142539,0 0.03005,0.01502 0.04122,0.05624 0.07127,0.07127 0.02125,0.01062 0.05002,-0.01062 0.07127,0 0.03005,0.01502 0.04122,0.05624 0.07127,0.07127 0.02125,0.01062 0.05002,-0.01062 0.07127,0 0.03005,0.01503 0.04122,0.05624 0.07127,0.07127 0.07619,0.0381 0.06635,-0.0381 0.142539,0 0.03005,0.01502 0.04122,0.05625 0.07127,0.07127 0.02125,0.01062 0.05002,-0.01062 0.07127,0 0.03005,0.01503 0.04122,0.05624 0.07127,0.07127 0.02125,0.01063 0.05002,-0.01062 0.07127,0 0.0601,0.03005 0.08244,0.112489 0.142539,0.142539 0.02125,0.01062 0.05002,-0.01062 0.07127,0 0.0601,0.03005 0.08244,0.112489 0.142539,0.142539 0.02125,0.01062 0.05002,-0.01062 0.07127,0 0.03005,0.01503 0.04122,0.05625 0.07127,0.07127 0.02125,0.01062 0.05002,-0.01062 0.07127,0 0.03005,0.01502 0.04122,0.05624 0.07127,0.07127 0.02125,0.01062 0.05002,-0.01062 0.07127,0 0.03005,0.01502 0.04122,0.05624 0.07127,0.07127 0.02125,0.01062 0.05002,-0.01063 0.07127,0 0.03005,0.01503 0.04122,0.05624 0.07127,0.07127 0.02125,0.01062 0.05002,-0.01062 0.07127,0 0.03005,0.01502 0.04122,0.05625 0.07127,0.07127 0.02125,0.01062 0.05002,-0.01062 0.07127,0 0.0601,0.03005 0.08244,0.112489 0.142539,0.142539 0.0425,0.02125 0.100042,-0.02125 0.142539,0 0.03005,0.01503 0.04122,0.05624 0.07127,0.07127 0.02125,0.01062 0.05002,-0.01062 0.07127,0 0.03005,0.01503 0.04122,0.05625 0.07127,0.07127 0.02125,0.01062 0.05002,-0.01063 0.07127,0 0.03005,0.01502 0.04122,0.05624 0.07127,0.07127 0.0425,0.02125 0.100043,-0.02125 0.142539,0 0.03005,0.01503 0.04122,0.05625 0.07127,0.07127 0.02125,0.01062 0.05002,-0.01063 0.07127,0 0.03005,0.01502 0.04122,0.05624 0.07127,0.07127 0.0425,0.02125 0.100042,-0.02125 0.142539,0 0.0601,0.03005 0.08244,0.112489 0.142539,0.142539 0.0425,0.02125 0.100042,-0.02125 0.142539,0 0.03005,0.01502 0.04122,0.05625 0.07127,0.07127 0.02125,0.01062 0.05002,-0.01063 0.07127,0 0.03005,0.01502 0.04122,0.05624 0.07127,0.07127 0.02125,0.01062 0.04751,0 0.07127,0 0.02376,0.02376 0.04122,0.05625 0.07127,0.07127 0.0425,0.02125 0.100042,-0.02125 0.142539,0 0.03005,0.01502 0.04122,0.05624 0.07127,0.07127 0.02125,0.01062 0.05002,-0.01062 0.07127,0 0.03005,0.01503 0.04122,0.05625 0.07127,0.07127 0.02125,0.01062 0.05002,-0.01063 0.07127,0 0.03005,0.01502 0.04122,0.05624 0.07127,0.07127 0.02125,0.01062 0.05002,-0.01062 0.07127,0 0.03005,0.01503 0.04122,0.05625 0.07127,0.07127 0.02125,0.01063 0.05002,-0.01062 0.07127,0 0.03005,0.01503 0.04122,0.05625 0.07127,0.07127 0.02125,0.01062 0.05002,-0.01062 0.07127,0 0.03005,0.01502 0.04122,0.05624 0.07127,0.07127 0.02125,0.01063 0.05002,-0.01062 0.07127,0 0.0601,0.03005 0.08244,0.11249 0.142539,0.142539 0.02125,0.01063 0.05002,-0.01062 0.07127,0 0.03005,0.01503 0.04122,0.05625 0.07127,0.07127 0.02125,0.01062 0.05002,-0.01062 0.07127,0 0.0601,0.03005 0.08244,0.112489 0.142538,0.142539 0.02125,0.01062 0.04751,0 0.07127,0 0.02376,0.02376 0.04122,0.05624 0.07127,0.07127 0.02125,0.01063 0.05002,-0.01062 0.07127,0 0.236371,0.236372 -0.06719,-0.0336 0.142539,0.07127 0.03005,0.01503 0.04122,0.05624 0.07127,0.07127 0.0425,0.02125 0.100042,-0.02125 0.142539,0 0.03005,0.01503 0.04122,0.05625 0.07127,0.07127 0.02125,0.01062 0.05002,-0.01062 0.07127,0 0.03005,0.01502 0.04122,0.05624 0.07127,0.07127 0.02125,0.01063 0.05002,-0.01062 0.07127,0 0.0601,0.03005 0.08244,0.112489 0.142539,0.142539 0.02125,0.01063 0.05002,-0.01062 0.07127,0 0.03005,0.01503 0.04122,0.05625 0.07127,0.07127 0.02125,0.01062 0.04751,0 0.07127,0 0.02376,0.02376 0.04122,0.05624 0.07127,0.07127 0.02125,0.01062 0.05447,-0.0168 0.07127,0 0.0168,0.0168 -0.0168,0.05447 0,0.07127 0.0168,0.0168 0.05447,-0.0168 0.07127,0 0.0168,0.0168 -0.01062,0.05002 0,0.07127 0.03507,0.07013 0.250013,0.214947 0.285078,0.285078 0.01062,0.02125 -0.01062,0.05002 0,0.07127 0.03005,0.0601 0.112489,0.08244 0.142539,0.142539 0.01062,0.02125 -0.01062,0.05002 0,0.07127 0.03507,0.07013 0.250013,0.214947 0.285078,0.285078 0.01062,0.02125 -0.0168,0.05447 0,0.07127 0.0168,0.0168 0.05447,-0.0168 0.07127,0 0.0168,0.0168 -0.01062,0.05002 0,0.07127 0.01503,0.03005 0.05624,0.04122 0.07127,0.07127 0.01062,0.02125 -0.01062,0.05002 0,0.07127 0.01503,0.03005 0.05625,0.04122 0.07127,0.07127 0.01062,0.02125 -0.01062,0.05002 0,0.07127 0.01503,0.03005 0.05624,0.04122 0.07127,0.07127 0.01062,0.02125 -0.01062,0.05002 0,0.07127 0.01503,0.03005 0.05625,0.04122 0.07127,0.07127 0.01062,0.02125 -0.01062,0.05002 0,0.07127 0.01502,0.03005 0.05624,0.04122 0.07127,0.07127 0.01062,0.02125 -0.01062,0.05002 0,0.07127 0.01503,0.03005 0.05625,0.04122 0.07127,0.07127 0.02125,0.0425 -0.02125,0.100043 0,0.142539 0.01502,0.03005 0.05624,0.04122 0.07127,0.07127 0.01062,0.02125 -0.01062,0.05002 0,0.07127 0.01503,0.03005 0.05625,0.04122 0.07127,0.07127 0.02125,0.0425 -0.02125,0.100042 0,0.142539 0.01502,0.03005 0.05624,0.04122 0.07127,0.07127 0.02851,0.05702 -0.02851,0.156793 0,0.213809 0.01503,0.03005 0.05625,0.04122 0.07127,0.07127 0.02851,0.05702 -0.02851,0.156793 0,0.213809 0.01503,0.03005 0.05625,0.04122 0.07127,0.07127 0.02851,0.05702 -0.02851,0.156793 0,0.213809 0.01502,0.03005 0.05624,0.04122 0.07127,0.07127 0.02851,0.05702 -0.02851,0.156793 0,0.213809 0.01503,0.03005 0.05625,0.04122 0.07127,0.07127 0.02851,0.05702 -0.02851,0.156793 0,0.213809 0.01502,0.03005 0.05624,0.04122 0.07127,0.07127 0.01084,0.02169 0,0.181712 0,0.213809 0,0.03727 0.0094,0.266338 0,0.285078 -0.01502,0.03005 -0.05624,0.04122 -0.07127,0.07127 -0.02125,0.0425 0.02125,0.100042 0,0.142539 -0.01503,0.03005 -0.05625,0.04122 -0.07127,0.07127 -0.01062,0.02125 0.01063,0.05002 0,0.07127 -0.01502,0.03005 -0.05624,0.04122 -0.07127,0.07127 -0.01062,0.02125 0.01062,0.05002 0,0.07127 -0.01503,0.03005 -0.05625,0.04122 -0.07127,0.07127 -0.01062,0.02125 0.01063,0.05002 0,0.07127 -0.04276,0.08552 -0.171046,0.128285 -0.213808,0.213808 -0.01062,0.02125 0.0168,0.05447 0,0.07127 -0.0168,0.0168 -0.05447,-0.0168 -0.07127,0 -0.0168,0.0168 0.01062,0.05002 0,0.07127 -0.04276,0.08552 -0.171047,0.128285 -0.213809,0.213809 -0.01062,0.02125 0.01062,0.05002 0,0.07127 -0.04276,0.08552 -0.171047,0.128285 -0.213808,0.213809 -0.01062,0.02125 0.01062,0.05002 0,0.07127 -0.01503,0.03005 -0.04751,0.04751 -0.07127,0.07127 -0.02376,0.02376 -0.04751,0.04751 -0.07127,0.07127 -0.03752,0.03752 -0.194777,0.175745 -0.213809,0.213809 -0.01062,0.02125 0.01062,0.05002 0,0.07127 -0.04276,0.08552 -0.171047,0.128285 -0.213808,0.213809 -0.01063,0.02125 0.01062,0.05002 0,0.07127 -0.0254,0.05079 -0.117142,0.09175 -0.142539,0.142539 -0.01063,0.02125 0.01062,0.05002 0,0.07127 -0.03005,0.0601 -0.112489,0.08244 -0.142539,0.142539 -0.01062,0.02125 0.01062,0.05002 0,0.07127 -0.03005,0.0601 -0.112489,0.08244 -0.142539,0.142539 -0.01062,0.02125 0.01062,0.05002 0,0.07127 -0.03005,0.0601 -0.112489,0.08244 -0.142539,0.142539 -0.01062,0.02125 0.01062,0.05002 0,0.07127 -0.01502,0.03005 -0.05624,0.04122 -0.07127,0.07127 -0.01062,0.02125 0.01063,0.05002 0,0.07127 -0.03005,0.0601 -0.112489,0.08244 -0.142539,0.142539 -0.01062,0.02125 0.01062,0.05002 0,0.07127 -0.01503,0.03005 -0.05624,0.04122 -0.07127,0.07127 -0.01062,0.02125 0.01062,0.05002 0,0.07127 -0.01503,0.03005 -0.05624,0.04122 -0.07127,0.07127 -0.01062,0.02125 0.01062,0.05002 0,0.07127 -0.01503,0.03005 -0.05624,0.04122 -0.07127,0.07127 -0.01062,0.02125 0.01062,0.05002 0,0.07127 -0.01503,0.03005 -0.05624,0.04122 -0.07127,0.07127 -0.01062,0.02125 0.01062,0.05002 0,0.07127 -0.01503,0.03005 -0.05624,0.04122 -0.07127,0.07127 -0.01062,0.02125 0.01062,0.05002 0,0.07127 -0.01503,0.03005 -0.05624,0.04122 -0.07127,0.07127 -0.01062,0.02125 0.01062,0.05002 0,0.07127 -0.01503,0.03005 -0.05624,0.04122 -0.07127,0.07127 -0.02125,0.0425 0.02125,0.100042 0,0.142539 -0.01503,0.03005 -0.05624,0.04122 -0.07127,0.07127 -0.01062,0.02125 0.01062,0.05002 0,0.07127 -0.01502,0.03005 -0.05624,0.04122 -0.07127,0.07127 -0.01062,0.02125 0.01062,0.05002 0,0.07127 -0.03005,0.0601 -0.112489,0.08244 -0.142539,0.142539 -0.01062,0.02125 0.01062,0.05002 0,0.07127 -0.03005,0.0601 -0.112489,0.08244 -0.142539,0.142539 -0.01062,0.02125 0.01062,0.05002 0,0.07127 -0.01503,0.03005 -0.05625,0.04122 -0.07127,0.07127 -0.01063,0.02125 0.01062,0.05002 0,0.07127 -0.0095,0.01892 -0.194886,0.204347 -0.213809,0.213808 -0.02125,0.01062 -0.05002,-0.01062 -0.07127,0 -0.157581,0.07879 -0.02212,0.04423 -0.07127,0.142539 -0.01502,0.03005 -0.04751,0.04751 -0.07127,0.07127 -0.02376,0.02376 -0.04122,0.05624 -0.07127,0.07127 -0.0425,0.02125 -0.108942,-0.0336 -0.142539,0 -0.0168,0.0168 0.0168,0.05447 0,0.07127 -0.0168,0.0168 -0.05002,-0.01063 -0.07127,0 -0.0601,0.03005 -0.08244,0.112489 -0.142539,0.142538 -0.02125,0.01063 -0.05447,-0.0168 -0.07127,0 -0.0168,0.0168 0.0168,0.05447 0,0.07127 -0.0168,0.0168 -0.05002,-0.01062 -0.07127,0 -0.296607,0.148303 0.07619,-0.0049 -0.07127,0.142539 -0.0168,0.0168 -0.05002,-0.01062 -0.07127,0 -0.08552,0.04276 -0.128285,0.171047 -0.213809,0.213808 -0.02577,0.01289 -0.306776,0 -0.356347,0 -0.166296,0 -0.332591,0 -0.498887,0 -0.0321,0 -0.192118,0.01084 -0.213808,0 -0.03005,-0.01503 -0.04122,-0.05624 -0.07127,-0.07127 -0.04328,-0.02164 -0.38434,0.02164 -0.427616,0 -0.03005,-0.01503 -0.04122,-0.05625 -0.07127,-0.07127 -0.04496,-0.02248 -0.311386,0.02248 -0.356347,0 -0.03005,-0.01502 -0.04122,-0.05624 -0.07127,-0.07127 -0.04328,-0.02164 -0.38434,0.02164 -0.427617,0 -0.03005,-0.01503 -0.04122,-0.05625 -0.07127,-0.07127 -0.01843,-0.0092 -0.377101,0 -0.427617,0 -0.02376,0 -0.05002,0.01063 -0.07127,0 -0.03005,-0.01502 -0.04122,-0.05624 -0.07127,-0.07127 -0.0448,-0.0224 -0.240284,0.0224 -0.285078,0 -0.03005,-0.01503 -0.04122,-0.05625 -0.07127,-0.07127 -0.04479,-0.0224 -0.240283,0.0224 -0.285078,0 -0.03005,-0.01502 -0.04122,-0.05624 -0.07127,-0.07127 -0.05702,-0.02851 -0.156793,0.02851 -0.213809,0 -0.03005,-0.01502 -0.04122,-0.05624 -0.07127,-0.07127 -0.02125,-0.01063 -0.05002,0.01062 -0.07127,0 -0.03005,-0.01503 -0.04122,-0.05625 -0.07127,-0.07127 -0.0425,-0.02125 -0.100042,0.02125 -0.142539,0 -0.03005,-0.01502 -0.04122,-0.05624 -0.07127,-0.07127 -0.02125,-0.01063 -0.05002,0.01062 -0.07127,0 -0.03005,-0.01503 -0.04122,-0.05625 -0.07127,-0.07127 -0.02125,-0.01062 -0.05002,0.01062 -0.07127,0 -0.03005,-0.01503 -0.04122,-0.05624 -0.07127,-0.07127 -0.02125,-0.01062 -0.05002,0.01062 -0.07127,0 -0.03005,-0.01502 -0.04122,-0.05624 -0.07127,-0.07127 -0.02125,-0.01062 -0.05002,0.01062 -0.07127,0 -0.0601,-0.03005 -0.08244,-0.112489 -0.142539,-0.142539 -0.02125,-0.01062 -0.05002,0.01062 -0.07127,0 -0.03005,-0.01503 -0.04122,-0.05624 -0.07127,-0.07127 -0.0425,-0.02125 -0.100042,0.02125 -0.142539,0 -0.0601,-0.03005 -0.08244,-0.11249 -0.142539,-0.142539 -0.02125,-0.01062 -0.05002,0.01062 -0.07127,0 -0.03005,-0.01503 -0.04122,-0.05624 -0.07127,-0.07127 -0.02125,-0.01062 -0.05002,0.01062 -0.07127,0 -0.0601,-0.03005 -0.08663,-0.105267 -0.142539,-0.142539 -0.0442,-0.02947 -0.09834,-0.0418 -0.142539,-0.07127 -0.02795,-0.01864 -0.04122,-0.05624 -0.07127,-0.07127 -0.02125,-0.01062 -0.05002,0.01062 -0.07127,0 -0.03005,-0.01503 -0.04331,-0.05263 -0.07127,-0.07127 -0.0442,-0.02947 -0.09834,-0.0418 -0.142539,-0.07127 -0.08223,-0.05482 -0.131574,-0.158986 -0.213808,-0.213808 -0.0442,-0.02947 -0.09834,-0.0418 -0.142539,-0.07127 -0.08223,-0.05482 -0.131575,-0.158986 -0.213809,-0.213808 -0.0442,-0.02947 -0.09834,-0.0418 -0.142539,-0.07127 -0.05591,-0.03727 -0.09503,-0.09503 -0.142539,-0.142539 -0.07127,-0.07127 -0.142538,-0.142539 -0.213808,-0.213808 -0.02376,-0.02376 -0.04122,-0.05624 -0.07127,-0.07127 -0.02125,-0.01062 -0.05002,0.01062 -0.07127,0 -0.03005,-0.01503 -0.04751,-0.04751 -0.07127,-0.07127 -0.02376,-0.02376 -0.04751,-0.04751 -0.07127,-0.07127 -0.118782,-0.118782 -0.237565,-0.237565 -0.356347,-0.356347 -0.02376,-0.02376 -0.04122,-0.05625 -0.07127,-0.07127 -0.02125,-0.01062 -0.05447,0.0168 -0.07127,0 -0.0168,-0.0168 0.01062,-0.05002 0,-0.07127 -0.0165,-0.033 -0.243162,-0.243161 -0.285078,-0.285078 -0.02376,-0.02376 -0.05625,-0.04122 -0.07127,-0.07127 -0.01062,-0.02125 0.01062,-0.05002 0,-0.07127 -0.04276,-0.08552 -0.171047,-0.128285 -0.213808,-0.213808 -0.01062,-0.02125 0.01062,-0.05002 0,-0.07127 -0.03005,-0.0601 -0.112489,-0.08244 -0.142539,-0.142539 -0.01062,-0.02125 0.01062,-0.05002 0,-0.07127 -0.01502,-0.03005 -0.04751,-0.04751 -0.07127,-0.07127 -0.04192,-0.04192 -0.268576,-0.252074 -0.285078,-0.285078 -0.01062,-0.02125 0.01062,-0.05002 0,-0.07127 -0.03507,-0.07013 -0.250012,-0.214947 -0.285078,-0.285078 -0.01062,-0.02125 0.01063,-0.05002 0,-0.07127 -0.04276,-0.08552 -0.171046,-0.128285 -0.213808,-0.213808 -0.01062,-0.02125 0.01062,-0.05002 0,-0.07127 -0.03507,-0.07013 -0.250012,-0.214946 -0.285078,-0.285078 -0.01062,-0.02125 0.01062,-0.05002 0,-0.07127 -0.04276,-0.08552 -0.171047,-0.128285 -0.213808,-0.213809 -0.01063,-0.02125 0.01062,-0.05002 0,-0.07127 -0.03507,-0.07013 -0.250013,-0.214947 -0.285078,-0.285078 -0.01063,-0.02125 0.01062,-0.05002 0,-0.07127 -0.03507,-0.07013 -0.250013,-0.214947 -0.285078,-0.285078 -0.01063,-0.02125 0.01062,-0.05002 0,-0.07127 -0.04276,-0.08552 -0.171047,-0.128285 -0.213809,-0.213808 -0.01062,-0.02125 0.01062,-0.05002 0,-0.07127 -0.01903,-0.03806 -0.176287,-0.176287 -0.213808,-0.213808 -0.02376,-0.02376 -0.04751,-0.04751 -0.07127,-0.07127 -0.02376,-0.02376 -0.04122,-0.05624 -0.07127,-0.07127 -0.02125,-0.01062 -0.05002,0.01062 -0.07127,0 -0.033,-0.0165 -0.243161,-0.243162 -0.285078,-0.285078 -0.04751,-0.04751 -0.105266,-0.08663 -0.142539,-0.142539 -0.06924,-0.10386 -0.04449,-0.148445 -0.142539,-0.213809 -0.0442,-0.02947 -0.09834,-0.0418 -0.142539,-0.07127 -0.02795,-0.01864 -0.04751,-0.04751 -0.07127,-0.07127 -0.07127,-0.07127 -0.142539,-0.142539 -0.213809,-0.213808 -0.02376,-0.02376 -0.04122,-0.05625 -0.07127,-0.07127 -0.02125,-0.01062 -0.05002,0.01063 -0.07127,0 -0.03806,-0.01903 -0.176287,-0.176287 -0.213808,-0.213808 -0.142539,-0.142539 -0.285078,-0.285078 -0.427617,-0.427617 -0.118782,-0.118783 -0.237565,-0.237565 -0.356347,-0.356347 -0.02376,-0.02376 -0.04751,-0.04751 -0.07127,-0.07127 -0.02376,-0.02376 -0.05624,-0.04122 -0.07127,-0.07127 -0.01063,-0.02125 0.0168,-0.05447 0,-0.07127 -0.0168,-0.0168 -0.05447,0.0168 -0.07127,0 -0.0168,-0.0168 0.01062,-0.05002 0,-0.07127 -0.03506,-0.07013 -0.250012,-0.214947 -0.285078,-0.285078 -0.01062,-0.02125 0.01062,-0.05002 0,-0.07127 -0.04276,-0.08552 -0.171047,-0.128285 -0.213808,-0.213808 -0.01063,-0.02125 0.01062,-0.05002 0,-0.07127 -0.0227,-0.0454 -0.300346,-0.300346 -0.356348,-0.356347 -0.236371,-0.236371 0.0336,0.06719 -0.07127,-0.142539 -0.0165,-0.033 -0.243161,-0.243161 -0.285078,-0.285078 -0.02376,-0.02376 -0.05625,-0.04122 -0.07127,-0.07127 -0.01062,-0.02125 0.01063,-0.05002 0,-0.07127 -0.04276,-0.08552 -0.171046,-0.128285 -0.213808,-0.213809 -0.01062,-0.02125 0.01062,-0.05002 0,-0.07127 -0.01502,-0.03005 -0.05624,-0.04122 -0.07127,-0.07127 -0.01062,-0.02125 0.01063,-0.05002 0,-0.07127 -0.01503,-0.03005 -0.05624,-0.04122 -0.07127,-0.07127 -0.01062,-0.02125 0.01062,-0.05002 0,-0.07127 -0.03005,-0.0601 -0.112489,-0.08244 -0.142539,-0.142539 -0.01062,-0.02125 0.01062,-0.05002 0,-0.07127 -0.03005,-0.0601 -0.112489,-0.08244 -0.142539,-0.142538 -0.01062,-0.02125 0.01062,-0.05002 0,-0.07127 -0.01503,-0.03005 -0.05625,-0.04122 -0.07127,-0.07127 -0.01062,-0.02125 0.01063,-0.05002 0,-0.07127 -0.01502,-0.03005 -0.05624,-0.04122 -0.07127,-0.07127 -0.01062,-0.02125 0.01062,-0.05002 0,-0.07127 -0.01503,-0.03005 -0.05625,-0.04122 -0.07127,-0.07127 -0.01062,-0.02125 0,-0.04751 0,-0.07127 -0.02376,-0.02376 -0.05624,-0.04122 -0.07127,-0.07127 -0.01062,-0.02125 0.01062,-0.05002 0,-0.07127 -0.01502,-0.03005 -0.05624,-0.04122 -0.07127,-0.07127 -0.01063,-0.02125 0.01062,-0.05002 0,-0.07127 -0.03005,-0.0601 -0.11249,-0.08244 -0.142539,-0.142539 -0.01062,-0.02125 0.01062,-0.05002 0,-0.07127 -0.01502,-0.03005 -0.05624,-0.04122 -0.07127,-0.07127 -0.01062,-0.02125 0.01062,-0.05002 0,-0.07127 -0.01503,-0.03005 -0.05625,-0.04122 -0.07127,-0.07127 -0.01062,-0.02125 0.01062,-0.05002 0,-0.07127 -0.01502,-0.03005 -0.05625,-0.04122 -0.07127,-0.07127 -0.01062,-0.02125 0.01062,-0.05002 0,-0.07127 -0.01503,-0.03005 -0.05624,-0.04122 -0.07127,-0.07127 -0.01063,-0.02125 0.01062,-0.05002 0,-0.07127 -0.01503,-0.03005 -0.05625,-0.04122 -0.07127,-0.07127 -0.01062,-0.02125 0.01062,-0.05002 0,-0.07127 -0.01503,-0.03005 -0.05624,-0.04122 -0.07127,-0.07127 -0.01063,-0.02125 0.01062,-0.05002 0,-0.07127 -0.01503,-0.03005 -0.05625,-0.04122 -0.07127,-0.07127 -0.02125,-0.0425 0.02125,-0.100042 0,-0.142539 -0.01502,-0.03005 -0.05624,-0.04122 -0.07127,-0.07127 -0.02125,-0.0425 0.02125,-0.100042 0,-0.142539 -0.01503,-0.03005 -0.05625,-0.04122 -0.07127,-0.07127 -0.02851,-0.05701 0.02851,-0.156792 0,-0.213808 -0.01502,-0.03005 -0.05624,-0.04122 -0.07127,-0.07127 -0.0224,-0.04479 0.0224,-0.240283 0,-0.285077 -0.01502,-0.03005 -0.05624,-0.04122 -0.07127,-0.07127 -0.02125,-0.0425 0.02125,-0.100042 0,-0.142539 -0.01503,-0.03005 -0.05624,-0.04122 -0.07127,-0.07127 -0.01062,-0.02125 0.01062,-0.05002 0,-0.07127 -0.01502,-0.03005 -0.05625,-0.04122 -0.07127,-0.07127 -0.01062,-0.02125 0.01062,-0.05002 0,-0.07127 -0.01503,-0.03005 -0.05624,-0.04122 -0.07127,-0.07127 -0.01063,-0.02125 0.01062,-0.05002 0,-0.07127 -0.03005,-0.0601 -0.112489,-0.08244 -0.142539,-0.142539 -0.01062,-0.02125 0.01062,-0.05002 0,-0.07127 -0.07879,-0.157581 -0.04423,-0.02212 -0.142539,-0.07127 -0.03005,-0.01502 -0.04122,-0.05624 -0.07127,-0.07127 -0.04479,-0.0224 -0.240283,0.0224 -0.285078,0 -0.03005,-0.01503 -0.04122,-0.05625 -0.07127,-0.07127 -0.0425,-0.02125 -0.100042,0.02125 -0.142539,0 -0.03005,-0.01502 -0.04122,-0.05624 -0.07127,-0.07127 -0.02125,-0.01062 -0.05447,0.0168 -0.07127,0 -0.0168,-0.0168 0.0168,-0.05447 0,-0.07127 -0.0168,-0.0168 -0.05447,0.0168 -0.07127,0 -0.0168,-0.0168 0.01063,-0.05002 0,-0.07127 -0.04276,-0.08552 -0.171046,-0.128285 -0.213808,-0.213809 -0.01062,-0.02125 0.0168,-0.05447 0,-0.07127 -0.147459,-0.147459 0.0058,0.225337 -0.142539,-0.07127 -0.0094,-0.01874 0,-0.247809 0,-0.285078 0,-0.02376 -0.0168,-0.05447 0,-0.07127 0.0168,-0.0168 0.05002,0.01062 0.07127,0 0.03005,-0.01502 0.04122,-0.05625 0.07127,-0.07127 0.03693,-0.01847 0.355948,0.01433 0.427617,0 0.09605,-0.01921 0.190052,-0.04751 0.285078,-0.07127 z"
         style="fill:#008000;fill-opacity:1;fill-rule:evenodd;stroke:none;stroke-width:1px;stroke-linecap:butt;stroke-linejoin:miter;stroke-opacity:1" />
      <path
         inkscape:connector-curvature="0"
         id="path3388"
         d="m 26.663697,35.091921 c 0,0 1.363636,2.727273 1.772727,4.5 0.409091,1.772728 1.272728,0.363637 1.272728,0.363637 l -2.136364,-5.454546 z"
         style="fill:#003e00;fill-opacity:1;fill-rule:evenodd;stroke:#004100;stroke-width:0.25;stroke-linecap:butt;stroke-linejoin:round;stroke-miterlimit:4;stroke-dasharray:none;stroke-opacity:1" />
      <g
         transform="translate(-9.5501114,-6.1291759)"
         style="fill:#008000;stroke:#004100;stroke-width:0.25;stroke-linejoin:round;stroke-miterlimit:4;stroke-dasharray:none;stroke-opacity:1"
         id="g3380">
        <path
           style="fill:#008000;fill-rule:evenodd;stroke:#004100;stroke-width:0.75;stroke-linecap:butt;stroke-linejoin:round;stroke-miterlimit:4;stroke-dasharray:none;stroke-opacity:1"
           d="m 16.681819,23.772728 c 6.484848,-2.424243 41.735615,7.476665 19.681817,17.136363 3.962121,-4.666667 2.296879,-8.917805 1.233448,-11.308919"
           id="path3372"
           inkscape:connector-curvature="0"
           sodipodi:nodetypes="ccc" />
        <path
           style="fill:#008000;fill-rule:evenodd;stroke:#004100;stroke-width:0.64999998;stroke-linecap:butt;stroke-linejoin:round;stroke-miterlimit:4;stroke-dasharray:none;stroke-opacity:1"
           d="M 36.181818,41.272727 C 19.589974,49.451926 17.606061,29.984848 16.818182,23.318181"
           id="path3370"
           inkscape:connector-curvature="0"
           sodipodi:nodetypes="cc" />
        <path
           style="fill:#008000;fill-rule:evenodd;stroke:#004100;stroke-width:0.75;stroke-linecap:butt;stroke-linejoin:round;stroke-miterlimit:4;stroke-dasharray:none;stroke-opacity:1"
           d="M 36.545455,40.545455 C 32.681818,40.719697 24.814739,39.205138 23.818182,37.340909"
           id="path3374"
           inkscape:connector-curvature="0"
           sodipodi:nodetypes="cc" />
        <path
           style="fill:#008000;fill-rule:evenodd;stroke:#004100;stroke-width:0.75;stroke-linecap:butt;stroke-linejoin:round;stroke-miterlimit:4;stroke-dasharray:none;stroke-opacity:1"
           d="m 32.772728,27.727272 c 0.99422,1.785484 1.507576,6.5 0.95455,8.545455 -2.590914,0.0076 -8.86474,-1.28383 -11.681824,-3.249999"
           id="path3376"
           inkscape:connector-curvature="0"
           sodipodi:nodetypes="ccc" />
        <path
           style="fill:#008000;fill-rule:evenodd;stroke:#004100;stroke-width:0.75;stroke-linecap:butt;stroke-linejoin:round;stroke-miterlimit:4;stroke-dasharray:none;stroke-opacity:1"
           d="m 27.795454,25.590909 c 1.150489,1.305181 0.409092,3.219697 0.409092,4.863636 -3.757576,0.787879 -5.770804,0.02949 -8.636365,-2.386364"
           id="path3378"
           inkscape:connector-curvature="0"
           sodipodi:nodetypes="ccc" />
        <path
           style="fill:#008000;fill-opacity:0;fill-rule:evenodd;stroke:#004100;stroke-width:0.75;stroke-linecap:butt;stroke-linejoin:round;stroke-miterlimit:4;stroke-dasharray:none;stroke-opacity:1"
           d="M 36.681818,40.994937 C 33.344275,33.158918 25.305425,26.850987 16.909091,23.636364"
           id="path3368"
           inkscape:connector-curvature="0"
           sodipodi:nodetypes="cc" />
      </g>
      <path
         sodipodi:nodetypes="cccc"
         inkscape:connector-curvature="0"
         id="path4193"
         d="m 31.199747,41.404956 3.144001,-3.85408 12.450052,-0.408418 2.612244,-3.393592"
         style="fill:none;fill-rule:evenodd;stroke:#000000;stroke-width:1px;stroke-linecap:butt;stroke-linejoin:miter;stroke-opacity:1" />
      <path
         sodipodi:nodetypes="cc"
         inkscape:connector-curvature="0"
         id="path4195"
         d="M 31.03248,41.572221 49.07704,19.324792"
         style="fill:none;fill-rule:evenodd;stroke:#000000;stroke-width:1px;stroke-linecap:butt;stroke-linejoin:miter;stroke-opacity:1" />
      <path
         sodipodi:nodetypes="ccccc"
         inkscape:connector-curvature="0"
         id="path4197"
         d="m 41.974817,20.544812 -3.664704,4.717458 0.915449,5.953766 6.578609,-0.394746 3.615545,-4.429763"
         style="fill:none;fill-rule:evenodd;stroke:#000000;stroke-width:1px;stroke-linecap:butt;stroke-linejoin:miter;stroke-opacity:1" />
      <circle
         r="1.2115813"
         cy="19.741644"
         cx="42.668316"
         id="path4199"
         style="fill:none;fill-opacity:1;stroke:#000000;stroke-width:0.64999998;stroke-linejoin:round;stroke-miterlimit:4;stroke-dasharray:none;stroke-opacity:1" />
      <circle
         r="1.2115813"
         cy="18.650497"
         cx="49.680065"
         id="path4199-8"
         style="fill:none;fill-opacity:1;stroke:#000000;stroke-width:0.64999998;stroke-linejoin:round;stroke-miterlimit:4;stroke-dasharray:none;stroke-opacity:1" />
      <circle
         r="1.2115813"
         cy="25.626762"
         cx="49.913078"
         id="path4199-0"
         style="fill:none;fill-opacity:1;stroke:#000000;stroke-width:0.64999998;stroke-linejoin:round;stroke-miterlimit:4;stroke-dasharray:none;stroke-opacity:1" />
      <circle
         r="1.2115813"
         cy="32.86076"
         cx="50.099541"
         id="path4199-9"
         style="fill:none;fill-opacity:1;stroke:#000000;stroke-width:0.64999998;stroke-linejoin:round;stroke-miterlimit:4;stroke-dasharray:none;stroke-opacity:1" />
    </g>
  </g>
</svg>
