/* XPM */
static char * part_browser_xpm[] = {
"32 32 392 2",
"  	c None",
". 	c #525251",
"+ 	c #606360",
"@ 	c #5F625F",
"# 	c #60635F",
"$ 	c #60625F",
"% 	c #5F625E",
"& 	c #494B48",
"* 	c #C7CCC6",
"= 	c #A8B3A5",
"- 	c #9CA899",
"; 	c #AEB6A6",
"> 	c #AAB4A4",
", 	c #ABB4A5",
"' 	c #9AA797",
") 	c #ACB5A5",
"! 	c #9DAA9A",
"~ 	c #B3BAAA",
"{ 	c #9BA897",
"] 	c #849081",
"^ 	c #252924",
"/ 	c #B7C0B5",
"( 	c #6F8066",
"_ 	c #67775B",
": 	c #6B7B5E",
"< 	c #5F7155",
"[ 	c #6C7B5E",
"} 	c #647659",
"| 	c #5C6F53",
"1 	c #808A6D",
"2 	c #647559",
"3 	c #54694D",
"4 	c #50664A",
"5 	c #485C43",
"6 	c #171E16",
"7 	c #91997F",
"8 	c #576B4F",
"9 	c #BAC2B8",
"0 	c #B2BAB0",
"a 	c #B3BAB1",
"b 	c #A5ADA3",
"c 	c #697466",
"d 	c #586B4F",
"e 	c #738064",
"f 	c #778367",
"g 	c #88947E",
"h 	c #B6BDB4",
"i 	c #929990",
"j 	c #596954",
"k 	c #171D15",
"l 	c #B7C1B5",
"m 	c #889278",
"n 	c #6D7C64",
"o 	c #6F7E6B",
"p 	c #D1D1D1",
"q 	c #A6A6A6",
"r 	c #979797",
"s 	c #6F6F6F",
"t 	c #414540",
"u 	c #4C5A49",
"v 	c #4E6047",
"w 	c #8F9883",
"x 	c #8B9589",
"y 	c #C9C9C9",
"z 	c #989898",
"A 	c #515151",
"B 	c #444B42",
"C 	c #4E5E49",
"D 	c #55664D",
"E 	c #1B2018",
"F 	c #9DA287",
"G 	c #697660",
"H 	c #5F695C",
"I 	c #D5D5D5",
"J 	c #BCBCBC",
"K 	c #C8C8C8",
"L 	c #7B7B7B",
"M 	c #3A3D39",
"N 	c #424D3F",
"O 	c #4D5E46",
"P 	c #727E6C",
"Q 	c #818880",
"R 	c #CACACA",
"S 	c #C0C0C0",
"T 	c #C5C5C5",
"U 	c #4C4C4C",
"V 	c #3F463D",
"W 	c #424F3E",
"X 	c #55684D",
"Y 	c #9EA388",
"Z 	c #738068",
"` 	c #ABABAB",
" .	c #A7A7A7",
"..	c #6D6D6D",
"+.	c #3E423D",
"@.	c #4F5D4B",
"#.	c #4E6147",
"$.	c #929B85",
"%.	c #8C9689",
"&.	c #C7C7C7",
"*.	c #A5A5A5",
"=.	c #A1A1A1",
"-.	c #4B4B4B",
";.	c #464F43",
">.	c #4F5F4A",
",.	c #596B50",
"'.	c #65735D",
").	c #5D675A",
"!.	c #7E7E7E",
"~.	c #3F433E",
"{.	c #424E40",
"].	c #495B42",
"^.	c #687564",
"/.	c #80877F",
"(.	c #C6C6C6",
"_.	c #D3D3D3",
":.	c #CDCDCD",
"<.	c #434A41",
"[.	c #42503F",
"}.	c #56694E",
"|.	c #B8C1B6",
"1.	c #9FA489",
"2.	c #6F7D6B",
"3.	c #D0D0D0",
"4.	c #A9A9A9",
"5.	c #B3B3B3",
"6.	c #6B6B6B",
"7.	c #4D5A49",
"8.	c #4E6247",
"9.	c #929A85",
"0.	c #8C968A",
"a.	c #C4C4C4",
"b.	c #AAAAAA",
"c.	c #494949",
"d.	c #444B41",
"e.	c #67745E",
"f.	c #9F9F9F",
"g.	c #ACACAC",
"h.	c #606060",
"i.	c #383B37",
"j.	c #414B3E",
"k.	c #4A5C43",
"l.	c #697564",
"m.	c #7C837A",
"n.	c #BFBFBF",
"o.	c #A2A2A2",
"p.	c #454545",
"q.	c #3E453D",
"r.	c #414E3D",
"s.	c #A4A98D",
"t.	c #6C7B63",
"u.	c #B1B1B1",
"v.	c #666666",
"w.	c #3B3F3B",
"x.	c #4A5747",
"y.	c #4C5F46",
"z.	c #74836E",
"A.	c #899387",
"B.	c #BDBDBD",
"C.	c #C2C2C2",
"D.	c #3E443C",
"E.	c #505F4B",
"F.	c #5A6C51",
"G.	c #54654B",
"H.	c #191F17",
"I.	c #B6BFB3",
"J.	c #A4A78C",
"K.	c #68765F",
"L.	c #5D675B",
"M.	c #787878",
"N.	c #3E473B",
"O.	c #475941",
"P.	c #6B7966",
"Q.	c #7D837B",
"R.	c #919191",
"S.	c #414141",
"T.	c #3E453C",
"U.	c #4B5444",
"V.	c #57694F",
"W.	c #A0A589",
"X.	c #697860",
"Y.	c #677564",
"Z.	c #ADADAD",
"`.	c #333732",
" +	c #505D4D",
".+	c #64725F",
"++	c #677261",
"@+	c #858B7F",
"#+	c #ACACAA",
"$+	c #A3A3A3",
"%+	c #939393",
"&+	c #3F3F3F",
"*+	c #434C41",
"=+	c #646F59",
"-+	c #5B6D52",
";+	c #999F85",
">+	c #67755F",
",+	c #5F6A5C",
"'+	c #646464",
")+	c #575757",
"!+	c #3A3A3A",
"~+	c #636361",
"{+	c #8F8C83",
"]+	c #6E6A5F",
"^+	c #736E64",
"/+	c #797469",
"(+	c #8C867A",
"_+	c #A8A6A0",
":+	c #747372",
"<+	c #313131",
"[+	c #4E5249",
"}+	c #505948",
"|+	c #586A4F",
"1+	c #6A765C",
"2+	c #989F84",
"3+	c #3B4239",
"4+	c #2E352C",
"5+	c #2C312A",
"6+	c #5C5C56",
"7+	c #878275",
"8+	c #47473A",
"9+	c #4B5644",
"0+	c #596A53",
"a+	c #515F4B",
"b+	c #3D4136",
"c+	c #5D594A",
"d+	c #7A7362",
"e+	c #36352D",
"f+	c #384634",
"g+	c #6C7B5F",
"h+	c #667359",
"i+	c #161D15",
"j+	c #8C967B",
"k+	c #788467",
"l+	c #717F63",
"m+	c #69785C",
"n+	c #757D67",
"o+	c #807D6E",
"p+	c #505243",
"q+	c #5C6C56",
"r+	c #9AA791",
"s+	c #ACB7A3",
"t+	c #99A58B",
"u+	c #708265",
"v+	c #6E765F",
"w+	c #676654",
"x+	c #656251",
"y+	c #5C654E",
"z+	c #707D61",
"A+	c #66775A",
"B+	c #5A6950",
"C+	c #61755C",
"D+	c #848D70",
"E+	c #495D43",
"F+	c #8C8E7F",
"G+	c #4D4A3E",
"H+	c #74806A",
"I+	c #9CAD96",
"J+	c #D3DACC",
"K+	c #B4C3B0",
"L+	c #90A386",
"M+	c #7A8F70",
"N+	c #7B8A6D",
"O+	c #4E5F47",
"P+	c #787363",
"Q+	c #484C3C",
"R+	c #616F56",
"S+	c #7F8A6C",
"T+	c #68785C",
"U+	c #465A41",
"V+	c #929187",
"W+	c #414637",
"X+	c #97A48C",
"Y+	c #B8C6B4",
"Z+	c #CFD8C7",
"`+	c #9BAF94",
" @	c #869B7B",
".@	c #7B9071",
"+@	c #808F71",
"@@	c #4E6248",
"#@	c #9C9C8D",
"$@	c #5A584C",
"%@	c #5C6A51",
"&@	c #B9B697",
"*@	c #738164",
"=@	c #69755A",
"-@	c #9B988D",
";@	c #4D5644",
">@	c #D9D8C5",
",@	c #C7D1BF",
"'@	c #EBE9D8",
")@	c #9EAF91",
"!@	c #D8D6BC",
"~@	c #8D9D7F",
"{@	c #C1BEA3",
"]@	c #667059",
"^@	c #9A9786",
"/@	c #656157",
"(@	c #A3A084",
"_@	c #656F56",
":@	c #DACFAF",
"<@	c #7E896C",
"[@	c #747D62",
"}@	c #A29D93",
"|@	c #495041",
"1@	c #DFDAC9",
"2@	c #B4BFA9",
"3@	c #F1ECD9",
"4@	c #9DAD8F",
"5@	c #EBE5CD",
"6@	c #92A083",
"7@	c #CEC7AE",
"8@	c #606753",
"9@	c #9B9587",
"0@	c #545145",
"a@	c #C0B79A",
"b@	c #6E755D",
"c@	c #4B4F4A",
"d@	c #364133",
"e@	c #766F5F",
"f@	c #424839",
"g@	c #736D5D",
"h@	c #3D4133",
"i@	c #746F62",
"j@	c #474538",
"k@	c #787267",
"l@	c #596050",
"m@	c #8C8677",
"n@	c #555C4B",
"o@	c #878171",
"p@	c #4D5544",
"q@	c #666154",
"r@	c #393B33",
"s@	c #A19C91",
"t@	c #3A392E",
"u@	c #666052",
"v@	c #3C3F32",
"w@	c #1F271C",
"x@	c #030403",
"y@	c #36332B",
"z@	c #615A4C",
"A@	c #1A1814",
"B@	c #020202",
"C@	c #000000",
"D@	c #010101",
"E@	c #6F6E6B",
"F@	c #7A7467",
"G@	c #201E19",
"H@	c #554F42",
"I@	c #3E3930",
"J@	c #474237",
"K@	c #2E2C27",
"L@	c #212121",
"M@	c #464645",
"N@	c #96948D",
"O@	c #726C60",
"P@	c #3D382F",
"Q@	c #555149",
"R@	c #312D25",
"S@	c #5E584A",
"T@	c #7C7769",
"U@	c #ABA89F",
"V@	c #A5A199",
"W@	c #948F82",
"X@	c #686358",
"Y@	c #302C26",
"Z@	c #524C3F",
"`@	c #ACA8A0",
" #	c #AAA8A1",
".#	c #777572",
"+#	c #4F493D",
"@#	c #585245",
"##	c #4F493E",
"$#	c #27241F",
"%#	c #999690",
"&#	c #938E86",
"*#	c #2F2C26",
"=#	c #0C0B09",
"-#	c #2B2721",
";#	c #98938D",
">#	c #A7A39D",
",#	c #2D2922",
"'#	c #8E8A84",
")#	c #ABA7A1",
"!#	c #34322C",
"~#	c #9A9690",
"{#	c #B3B0AB",
"]#	c #2C2922",
"^#	c #8A8780",
"/#	c #33312C",
"(#	c #7D7970",
"_#	c #47433C",
"    . + @ @ # # $ % # # $ $ @ # # @ @ # # @ &                   ",
"    * = - ; > > , ' ) ! ~ { ! ! ! ! ' ! ! ! ] ^                 ",
"    / ( _ : < < [ } | 1 2 3 4 4 4 4 4 4 4 4 5 6                 ",
"    / 7 _ 8 9 0 a b c d e f g h a a i j 4 4 5 k                 ",
"    l m n o p q r s t u v w x y z r A B C d D E                 ",
"    l F G H I J K L M N O P Q R S T U V W X D E                 ",
"    / Y Z o p `  ...+.@.#.$.%.&.*.=.-.;.>.,.D E                 ",
"    / Y '.).p p &.!.~.{.].^./.(._.:.-.<.[.}.D E                 ",
"    |.1.n 2.3.4.5.6.~.7.8.9.0.a.` b.c.d.>.,.D E                 ",
"    / 1.e.).&.f.g.h.i.j.k.l.m.n.o.z p.q.r.}.D E                 ",
"    |.s.t.2.K S u.v.w.x.y.z.A.B.C.q p.D.E.F.G.H.                ",
"    I.J.K.L.y z u.M.i.N.O.P.Q.B.R.a.S.T.U.V.G.H.                ",
"    |.W.X.Y.R Z.*.h.`. +.+++@+#+$+%+&+*+=+-+D E                 ",
"    / ;+>+,+` '+)+!+~+{+]+^+/+(+_+:+<+[+}+|+1+E                 ",
"    |.2+4 4 3+4+5+6+7+8+9+0+a+b+c+d+e+f+g+4 h+i+                ",
"    I.j+k+g+l+m+n+o+p+q+r+s+t+u+v+w+x+y+z+A+B+i+                ",
"    |.C+D+4 g+E+F+G+H+I+J+K+L+M+N+O+P+Q+R+4 5 i+                ",
"    |.C+S+4 T+U+V+W+X+Y+Z+`+ @.@+@@@#@$@%@4 5 i+                ",
"    / C+&@*@&@=@-@;@>@,@'@)@!@~@{@]@^@/@(@_@5 i+                ",
"    |.C+:@<@:@[@}@|@1@2@3@4@5@6@7@8@9@0@a@b@5 i+                ",
"    c@d@e@f@g@h@i@j@k@l@m@n@o@p@q@r@s@t@u@v@w@x@                ",
"                y@z@A@B@C@    C@D@E@F@G@C@                      ",
"                  H@I@J@K@  L@M@N@O@P@Q@                        ",
"                    R@S@T@U@V@W@X@Y@Z@`@ #.#                    ",
"                        +#@###$#      %#&#*#=#                  ",
"                                      -#;#>#G@=#                ",
"                                        ,#'#)#!#=#              ",
"                                          ,#~#{#G@=#            ",
"                                            ]#^#)#/#            ",
"                                              ]#(#_#            ",
"                                                                ",
"                                                                "};
