/* XPM */
static char * rotate_xpm[] = {
"16 16 43 1",
" 	c None",
".	c #000000",
"+	c #F3F3F5",
"@	c #ECECEE",
"#	c #939CA2",
"$	c #8D959C",
"%	c #E0E0E1",
"&	c #87929D",
"*	c #8A95A0",
"=	c #9299A1",
"-	c #D2D2D3",
";	c #8F99A4",
">	c #939DA8",
",	c #A2AAB0",
"'	c #CED0D1",
")	c #ECEEEE",
"!	c #97A2AC",
"~	c #9CA6B0",
"{	c #A9AFB6",
"]	c #CFD0D2",
"^	c #A0A5AB",
"/	c #A0AAB4",
"(	c #A3ADB7",
"_	c #AFB5BB",
":	c #C3C4C5",
"<	c #3A3A3A",
"[	c #A8AEB2",
"}	c #A7B1BA",
"|	c #AAB4BD",
"1	c #B3BAC0",
"2	c #939393",
"3	c #666666",
"4	c #AFB3B6",
"5	c #AEB8C1",
"6	c #8D8D8D",
"7	c #B2B6BB",
"8	c #ABB4BD",
"9	c #909090",
"0	c #B5BAC0",
"a	c #B2BBC3",
"b	c #959595",
"c	c #B8B8B8",
"d	c #9C9C9C",
"                ",
"           ..   ",
"             .  ",
"     ..      .  ",
"    .++.    ... ",
"   .@#$%.    .  ",
"  .@#&*=-.      ",
" .@#&*;>,'.     ",
".)#&*;>!~{].    ",
" .^*;>!~/(_:.   ",
"  <[>!~/(}|12.  ",
"   34~/(}|56.   ",
"    <78}|59.    ",
"     .0a5b.     ",
"      .cd.      ",
"       ..       "};
