/* XPM */
static char * sim_settings_xpm[] = {
"24 24 160 2",
"  	c None",
". 	c #000000",
"+ 	c #E5E5E5",
"@ 	c #CECECE",
"# 	c #CDCDCD",
"$ 	c #DCCB94",
"% 	c #DCDCDC",
"& 	c #C7C7C7",
"* 	c #8E7D45",
"= 	c #CFCFCF",
"- 	c #C1C1C1",
"; 	c #B2A97E",
"> 	c #CCC9B7",
", 	c #BAB7AB",
"' 	c #898989",
") 	c #E3E3DF",
"! 	c #AB5959",
"~ 	c #D9D9D9",
"{ 	c #878787",
"] 	c #DBDBDB",
"^ 	c #B0A77C",
"/ 	c #B5AC80",
"( 	c #4A4634",
"_ 	c #CAC6B4",
": 	c #CEC9B4",
"< 	c #CECBBA",
"[ 	c #A84F4F",
"} 	c #A7A7A7",
"| 	c #9B9B9B",
"1 	c #B7AE81",
"2 	c #BDB486",
"3 	c #343124",
"4 	c #CFCCBB",
"5 	c #F5F5F5",
"6 	c #F3F3F3",
"7 	c #A65757",
"8 	c #6E6E6E",
"9 	c #ADA57B",
"0 	c #B4AC80",
"a 	c #7C7557",
"b 	c #4C4836",
"c 	c #D0CCB9",
"d 	c #CBBEAC",
"e 	c #A35252",
"f 	c #C48B8B",
"g 	c #AA6C6C",
"h 	c #B1A87D",
"i 	c #B9B082",
"j 	c #BEB586",
"k 	c #4C4936",
"l 	c #867F7F",
"m 	c #A65353",
"n 	c #633434",
"o 	c #CFCBBA",
"p 	c #D0CCBB",
"q 	c #332D18",
"r 	c #C6C6C6",
"s 	c #7A7356",
"t 	c #BAB183",
"u 	c #7F7F7F",
"v 	c #D1CEBB",
"w 	c #D3D0BE",
"x 	c #D4D0BE",
"y 	c #4B4735",
"z 	c #7F7554",
"A 	c #554B29",
"B 	c #494533",
"C 	c #2B2B2B",
"D 	c #E4E4E4",
"E 	c #D6D6D0",
"F 	c #C0C0BB",
"G 	c #828279",
"H 	c #4A4735",
"I 	c #D7D4C1",
"J 	c #D8D4C1",
"K 	c #D9D5C1",
"L 	c #E2DFCB",
"M 	c #B7A155",
"N 	c #96854B",
"O 	c #504C38",
"P 	c #4E4B37",
"Q 	c #C3BFA9",
"R 	c #AEAA90",
"S 	c #63635B",
"T 	c #A7A79A",
"U 	c #818174",
"V 	c #D4D0BC",
"W 	c #DAD6C1",
"X 	c #D9D6C1",
"Y 	c #D4D6C1",
"Z 	c #58543E",
"` 	c #54503B",
" .	c #B5B194",
"..	c #B3B093",
"+.	c #B4B095",
"@.	c #64645C",
"#.	c #C8C8C8",
"$.	c #C2B889",
"%.	c #504D39",
"&.	c #DDD9C4",
"*.	c #B9B598",
"=.	c #A9A587",
"-.	c #A19D80",
";.	c #C0C1AA",
">.	c #D7D3BA",
",.	c #D6D2BA",
"'.	c #D5D1B9",
").	c #828282",
"!.	c #C2B98A",
"~.	c #514D39",
"{.	c #D2CEBA",
"].	c #DFDBC5",
"^.	c #D3CFB9",
"/.	c #C0BDB0",
"(.	c #DFDBC6",
"_.	c #DEDAC5",
":.	c #DCD8C4",
"<.	c #C8C4B0",
"[.	c #524F3A",
"}.	c #BBB284",
"|.	c #CAC18F",
"1.	c #534F3B",
"2.	c #BCB9AD",
"3.	c #D3D0BD",
"4.	c #BDBBAD",
"5.	c #524E3A",
"6.	c #69644A",
"7.	c #BCB385",
"8.	c #C3BA8A",
"9.	c #CAC08F",
"0.	c #534F3A",
"a.	c #D8D4C0",
"b.	c #DCD9C4",
"c.	c #BBB8AC",
"d.	c #DAD6C2",
"e.	c #CCC8B3",
"f.	c #CCC290",
"g.	c #C4BA8A",
"h.	c #C8BE8D",
"i.	c #CDC491",
"j.	c #DDD9C5",
"k.	c #D4CFB6",
"l.	c #6E684D",
"m.	c #CEC592",
"n.	c #C5BC8C",
"o.	c #CEC491",
"p.	c #CFC592",
"q.	c #C1B888",
"r.	c #BEB486",
"s.	c #C6BC8C",
"t.	c #C8BF8D",
"u.	c #C9C08F",
"v.	c #C9BF8E",
"w.	c #C7BE8D",
"x.	c #C5BB8B",
"y.	c #C0B788",
"z.	c #B2A97D",
"A.	c #C2B989",
"B.	c #BFB687",
"C.	c #B3AA7E",
"                                                ",
"                          . .                   ",
"                      . . + @ .           .     ",
"                  . . # + + + .         . $ .   ",
"            . . . % + + + + + & .     . $ * .   ",
"    . . . . # + + + + = + - + + .   . $ * .     ",
"  . ; . > , ' ) + ! + ~ + = { + ] . $ * .       ",
". ^ / ( _ : < ' + [ } + | { + + . $ * .         ",
". . 1 2 3 4 ' 5 6 7 + 8 + + + . $ * .           ",
". 9 0 a b c d e f g + ' ' + . $ * . ~ .         ",
". . h i j k + l m n o 4 p . $ q . = + r .       ",
"  . s . t s u v ' + w x y z A B C D E F G .     ",
"    .   . . H I J K L M N O P Q R S T T U .     ",
"            . V W X Y Z `  ...+.@.T T #..       ",
"          . $.%.&.*.=.-.;.>.,.'.' ).. .         ",
"        . i !.~.{.].^./.K (._.:.<.[..           ",
"        . }.!.|.1._.2.3.4.(._.5.6.j .           ",
"        . 7.8.9.0.a.b.c.d.e.6.f.g.}..           ",
"          . . h.i.` j.k.0.l.m.h.. .             ",
"            . n.9.o.[.0.p.f.h.q..               ",
"          . r.8.s.t.u.v.w.x.y.}.z..             ",
"            . j . . A.$.B.. . C..               ",
"              .   . }.t 1 .   .                 ",
"                    . . .                       "};
