/* XPM */
static char * text_xpm[] = {
"24 24 3 1",
" 	c None",
".	c #000000",
"+	c #777777",
"                        ",
"                        ",
"                        ",
"                        ",
"                        ",
"      ...........       ",
"      ..++...++..+      ",
"      .++ ...+  .+      ",
"       +  ...+   +      ",
"         +..+           ",
"         +..+           ",
"         +..+           ",
"         ...+           ",
"         ..+            ",
"        +..+            ",
"        +..+            ",
"        ...+            ",
"       .....            ",
"        +++++           ",
"                        ",
"                        ",
"                        ",
"                        ",
"                        "};
