/* XPM */
static char * tool_arrow_xpm[] = {
"16 20 3 1",
" 	c None",
".	c #000000",
"+	c #FFFFFF",
"                ",
"   .            ",
"   ..           ",
"   ...          ",
"   ....         ",
"   .....        ",
"   ......       ",
"   .......      ",
"   ........     ",
"   .....        ",
"   .. ..        ",
"   .   ..       ",
"       ..       ",
"        ..      ",
"        ..      ",
"                ",
"                ",
"                ",
"                ",
"                "};
