/* XPM */
static char * vclamp_xpm[] = {
"24 24 61 1",
" 	c None",
".	c #000000",
"+	c #2C2C2C",
"@	c #3F4040",
"#	c #535353",
"$	c #101010",
"%	c #262625",
"&	c #404040",
"*	c #595A5A",
"=	c #70706F",
"-	c #1A1A1A",
";	c #656666",
">	c #7F7F7F",
",	c #8F8F8F",
"'	c #2C2C2B",
")	c #262526",
"!	c #3F403F",
"~	c #7F7F80",
"{	c #9A9999",
"]	c #A5A5A5",
"^	c #ABACAC",
"/	c #403F40",
"(	c #40403F",
"_	c #80807F",
":	c #BFBFBF",
"<	c #BFC0BF",
"[	c #C0BFBF",
"}	c #535453",
"|	c #5A5A5A",
"1	c #656566",
"2	c #FFFFFF",
"3	c #E5E5E5",
"4	c #DAD9DA",
"5	c #D3D3D4",
"6	c #706F6F",
"7	c #808080",
"8	c #EFEFEF",
"9	c #FF003C",
"0	c #908F90",
"a	c #A5A5A6",
"b	c #D9D9D9",
"c	c #2B2A2A",
"d	c #555555",
"e	c #ACACAC",
"f	c #D3D3D3",
"g	c #070707",
"h	c #030303",
"i	c #2B2B2B",
"j	c #010101",
"k	c #020202",
"l	c #2B2B2A",
"m	c #807F80",
"n	c #AAAAAA",
"o	c #2A2A2B",
"p	c #D4D5D4",
"q	c #2A2A2A",
"r	c #807F7F",
"s	c #D4D4D4",
"t	c #7F8080",
"u	c #D5D4D5",
"v	c #D5D4D4",
"                        ",
"                        ",
"              .....     ",
"             ..+@#..    ",
"            ..$%&*=..   ",
"           ..$.-&;>,..  ",
"           .')-.!~{]^.  ",
"           .@/(&_:<[:.  ",
"           .}|1_:2345.  ",
"          ...67{:328..  ",
"         ..99.0a:b8..99 ",
"        ..cd99.e:fgh9922",
"       ..id7992jkk. 992 ",
"      ..ldmn992     992 ",
"     ..od>np299    9922 ",
"    ..qdrnp2.992   992  ",
"   ..ldmns2.  99  9922  ",
"   ..dtnu2.   992 992   ",
"  ....nv2.    992 992   ",
"  .....2.      999922   ",
"  ......       99992    ",
"  ...           9922    ",
"                992     ",
"                 22     "};
